<?xml version="1.0" standalone="no"?>
<!DOCTYPE svg PUBLIC "-//W3C//DTD SVG 20010904//EN"
 "http://www.w3.org/TR/2001/REC-SVG-20010904/DTD/svg10.dtd">
<svg version="1.0" xmlns="http://www.w3.org/2000/svg"
 width="1348.000000pt" height="636.000000pt" viewBox="0 0 1348.000000 636.000000"
 preserveAspectRatio="xMidYMid meet">

<g transform="translate(0.000000,636.000000) scale(0.100000,-0.100000)"
fill="#000000" stroke="none">
<path d="M11416 6108 c-4 -11 -2 -56 3 -66 0 -1 10 2 21 8 16 8 20 8 20 -4 0
-8 -6 -19 -12 -23 -7 -4 -14 -15 -15 -23 -1 -8 -12 -42 -25 -76 -16 -43 -27
-59 -38 -56 -8 2 -6 -2 5 -11 28 -20 75 -29 110 -19 25 7 31 15 36 48 5 29 2
45 -12 65 -15 21 -16 32 -8 65 5 21 11 47 14 56 4 20 -14 32 -63 43 -23 5 -33
3 -36 -7z"/>
<path d="M1912 6048 c-23 -23 -13 -48 23 -64 19 -8 35 -19 35 -24 0 -18 -32
-24 -52 -11 -25 15 -35 7 -18 -14 25 -31 90 -15 90 22 0 18 -9 28 -35 39 -19
8 -35 21 -35 29 0 18 31 20 48 3 6 -6 15 -8 19 -4 10 9 -25 36 -47 36 -9 0
-21 -5 -28 -12z"/>
<path d="M2310 6037 c0 -18 -5 -22 -32 -22 -30 0 -33 -3 -36 -33 -4 -43 11
-60 53 -59 l35 1 0 68 c0 39 -4 68 -10 68 -5 0 -10 -10 -10 -23z m-2 -71 c-4
-30 -42 -28 -46 3 -2 13 2 27 9 32 18 11 41 -10 37 -35z"/>
<path d="M2374 6001 c1 -74 16 -92 63 -75 26 9 28 14 31 72 2 36 -1 62 -7 62
-6 0 -11 -26 -13 -57 -3 -55 -5 -58 -30 -61 -30 -4 -34 5 -41 83 -2 22 -4 11
-3 -24z"/>
<path d="M2513 5990 c0 -41 2 -58 4 -37 2 20 2 54 0 75 -2 20 -4 3 -4 -38z"/>
<path d="M5613 5985 c0 -27 2 -40 4 -27 3 15 11 22 28 22 17 0 25 -7 28 -22 2
-13 4 0 4 27 0 28 -2 40 -4 28 -3 -16 -11 -23 -28 -23 -17 0 -25 7 -28 23 -2
12 -4 0 -4 -28z"/>
<path d="M6173 6023 c12 -3 17 -16 19 -46 l1 -42 4 40 c3 22 10 43 16 47 7 4
-4 7 -23 7 -19 -1 -27 -3 -17 -6z"/>
<path d="M6503 5985 c0 -27 2 -38 4 -22 2 15 2 37 0 50 -2 12 -4 0 -4 -28z"/>
<path d="M6609 6019 c-2 -27 3 -64 9 -71 4 -4 6 11 5 33 -1 39 -12 67 -14 38z"/>
<path d="M6991 5992 c-1 -31 3 -44 15 -49 28 -11 49 11 50 53 l2 39 -7 -40
c-5 -31 -10 -40 -26 -40 -16 0 -21 9 -26 40 l-6 40 -2 -43z"/>
<path d="M7083 5985 c0 -27 2 -38 4 -22 2 15 2 37 0 50 -2 12 -4 0 -4 -28z"/>
<path d="M7152 5985 c-1 -43 1 -47 9 -25 l10 25 19 -22 c25 -31 34 -29 13 3
-14 22 -15 29 -3 47 12 21 11 21 -13 -1 l-25 -24 -5 24 c-2 12 -5 1 -5 -27z"/>
<path d="M7278 6020 c-5 -17 3 -80 11 -80 7 0 6 79 -2 86 -3 3 -7 0 -9 -6z"/>
<path d="M7583 5985 c0 -27 2 -38 4 -22 2 15 2 37 0 50 -2 12 -4 0 -4 -28z"/>
<path d="M2025 6010 c-4 -7 2 -10 21 -8 15 2 29 -2 31 -9 2 -7 -8 -13 -24 -15
-22 -2 -28 -8 -28 -28 0 -22 5 -25 38 -27 l38 -1 -3 46 c-3 45 -5 47 -35 50
-17 2 -34 -2 -38 -8z m55 -54 c0 -17 -27 -29 -35 -16 -4 6 -3 15 0 20 9 15 35
12 35 -4z"/>
<path d="M2135 6010 c-4 -7 2 -10 21 -8 15 2 29 -2 31 -9 2 -7 -8 -13 -24 -15
-22 -2 -28 -8 -28 -28 0 -22 5 -25 38 -27 l38 -1 -3 46 c-3 45 -5 47 -35 50
-17 2 -34 -2 -38 -8z m55 -54 c0 -17 -27 -29 -35 -16 -4 6 -3 15 0 20 9 15 35
12 35 -4z"/>
<path d="M5704 5996 c-11 -29 0 -51 26 -51 21 0 25 5 25 30 0 24 -5 31 -23 33
-13 2 -24 -3 -28 -12z m43 -12 c8 -21 -13 -42 -28 -27 -13 13 -5 43 11 43 6 0
13 -7 17 -16z"/>
<path d="M5783 5975 c0 -22 2 -30 4 -17 2 12 2 30 0 40 -3 9 -5 -1 -4 -23z"/>
<path d="M5807 6003 c6 -4 13 -22 16 -38 4 -27 5 -27 3 4 0 21 -7 36 -16 38
-10 3 -11 2 -3 -4z"/>
<path d="M5847 6002 c6 -4 13 -21 16 -37 4 -27 4 -27 6 8 1 29 -3 37 -16 37
-12 0 -14 -3 -6 -8z"/>
<path d="M5894 5996 c-15 -38 22 -74 49 -47 7 7 4 8 -10 5 -12 -3 -24 -1 -27
5 -5 7 3 11 19 11 20 0 26 4 23 18 -4 22 -46 29 -54 8z m41 -6 c3 -5 -3 -10
-14 -10 -12 0 -21 5 -21 10 0 6 6 10 14 10 8 0 18 -4 21 -10z"/>
<path d="M6234 5996 c-15 -38 22 -74 49 -47 7 7 4 8 -10 5 -12 -3 -24 -1 -27
5 -5 7 3 11 19 11 20 0 26 4 23 18 -4 22 -46 29 -54 8z m41 -6 c3 -5 -3 -10
-14 -10 -12 0 -21 5 -21 10 0 6 6 10 14 10 8 0 18 -4 21 -10z"/>
<path d="M6312 5972 c1 -37 1 -37 5 -4 3 18 10 32 18 32 8 0 15 -14 18 -32 l4
-33 1 33 c1 20 7 32 16 32 9 0 17 -13 19 -32 l5 -33 -2 35 c-1 34 -2 35 -43
37 l-43 3 2 -38z"/>
<path d="M6421 5961 c0 -25 3 -39 7 -31 4 8 16 15 27 15 16 0 20 7 20 30 0 26
-4 30 -27 31 -27 1 -28 -1 -27 -45z m46 23 c8 -21 -13 -42 -28 -27 -13 13 -5
43 11 43 6 0 13 -7 17 -16z"/>
<path d="M6536 6001 c-4 -5 3 -7 14 -4 11 3 20 1 20 -5 0 -5 -9 -12 -21 -15
-26 -7 -20 -31 9 -35 19 -3 22 1 22 32 0 29 -4 36 -19 36 -11 0 -22 -4 -25 -9z
m34 -41 c0 -5 -7 -10 -15 -10 -8 0 -15 5 -15 10 0 6 7 10 15 10 8 0 15 -4 15
-10z"/>
<path d="M6654 5996 c-15 -38 22 -74 49 -47 7 7 4 8 -10 5 -12 -3 -24 -1 -27
5 -5 7 3 11 19 11 20 0 26 4 23 18 -4 22 -46 29 -54 8z m41 -6 c3 -5 -3 -10
-14 -10 -12 0 -21 5 -21 10 0 6 6 10 14 10 8 0 18 -4 21 -10z"/>
<path d="M6730 5996 c0 -7 10 -21 23 -30 l22 -17 -22 5 c-13 2 -23 0 -23 -6 0
-14 43 -5 48 10 2 7 -5 16 -17 19 -26 7 -27 20 -3 26 13 4 11 5 -5 6 -14 1
-23 -5 -23 -13z"/>
<path d="M7243 5975 c0 -22 2 -30 4 -17 2 12 2 30 0 40 -3 9 -5 -1 -4 -23z"/>
<path d="M7320 5996 c0 -7 10 -21 23 -30 l22 -17 -22 5 c-13 2 -23 0 -23 -6 0
-14 43 -5 48 10 2 7 -5 16 -17 19 -26 7 -27 20 -3 26 13 4 11 5 -5 6 -14 1
-23 -5 -23 -13z"/>
<path d="M7614 5996 c-10 -26 1 -51 24 -54 12 -2 22 1 22 6 0 5 -8 9 -17 8
-12 -1 -18 6 -18 19 0 13 6 20 18 19 9 -1 17 2 17 7 0 15 -40 10 -46 -5z"/>
<path d="M7690 5995 c-17 -21 -2 -50 26 -50 14 0 19 7 19 30 0 34 -24 45 -45
20z m40 -20 c0 -25 -23 -35 -35 -15 -10 16 2 40 20 40 9 0 15 -9 15 -25z"/>
<path d="M7761 5971 c1 -36 1 -36 8 -6 3 17 13 30 21 30 8 0 18 -13 22 -30 6
-29 6 -29 5 5 -2 31 -5 35 -29 36 -26 1 -28 -2 -27 -35z"/>
<path d="M7845 6000 c-8 -14 3 -30 21 -30 8 0 14 -5 14 -11 0 -7 -9 -9 -21 -6
-16 4 -19 3 -11 -5 12 -12 42 -4 42 13 0 6 -9 13 -20 16 -11 3 -20 10 -20 15
0 6 9 8 20 5 11 -3 18 -1 14 4 -7 12 -31 11 -39 -1z"/>
<path d="M9292 5548 c-7 -7 -12 -18 -12 -25 0 -7 -11 -13 -25 -13 -16 0 -25 6
-25 15 0 24 -37 18 -43 -7 -6 -25 5 -107 17 -126 9 -15 56 -16 56 -2 0 6 -7
13 -15 16 -9 4 -15 19 -15 40 0 30 3 34 25 34 23 0 25 -3 25 -50 0 -43 3 -50
20 -50 17 0 20 7 20 50 0 38 4 50 15 50 8 0 15 7 15 15 0 8 -7 15 -15 15 -8 0
-15 5 -15 10 0 6 7 10 15 10 8 0 15 7 15 15 0 18 -41 20 -58 3z"/>
<path d="M9567 5554 c-9 -10 2 -24 19 -24 8 0 14 7 14 15 0 15 -21 21 -33 9z"/>
<path d="M7750 5465 c0 -78 2 -85 20 -85 16 0 20 7 20 30 0 28 3 30 35 30 36
0 55 20 55 59 0 34 -27 51 -81 51 l-49 0 0 -85z m85 30 c0 -13 -8 -21 -22 -23
-19 -3 -23 1 -23 23 0 22 4 26 23 23 14 -2 22 -10 22 -23z"/>
<path d="M8690 5465 c0 -69 3 -85 15 -85 12 0 15 16 15 85 0 69 -3 85 -15 85
-12 0 -15 -16 -15 -85z"/>
<path d="M8790 5465 c0 -77 2 -85 19 -85 14 0 21 8 23 28 2 22 9 28 38 32 24
3 39 13 49 31 13 24 13 29 -2 53 -15 23 -24 26 -72 26 l-55 0 0 -85z m93 43
c7 -23 -4 -38 -29 -38 -19 0 -24 5 -24 25 0 20 5 25 24 25 13 0 26 -6 29 -12z"/>
<path d="M9500 5465 c0 -78 2 -85 20 -85 18 0 20 7 20 85 0 78 -2 85 -20 85
-18 0 -20 -7 -20 -85z"/>
<path d="M7906 5488 c-34 -48 -7 -108 48 -108 30 0 56 15 56 32 0 5 -18 5 -40
2 -33 -5 -40 -4 -40 10 0 12 10 16 45 16 25 0 45 3 45 6 0 11 -23 49 -34 56
-23 16 -65 8 -80 -14z m69 -18 c4 -6 -5 -10 -19 -10 -14 0 -26 5 -26 10 0 6 9
10 19 10 11 0 23 -4 26 -10z"/>
<path d="M8040 5445 c0 -50 3 -65 14 -65 10 0 16 14 18 43 2 32 8 44 26 52 24
10 30 35 9 35 -7 0 -18 -5 -25 -12 -9 -9 -12 -9 -12 0 0 7 -7 12 -15 12 -12 0
-15 -14 -15 -65z"/>
<path d="M8142 5498 c-7 -7 -12 -20 -12 -30 0 -17 14 -26 65 -43 15 -5 17 -8
6 -15 -8 -5 -24 -4 -38 3 -28 12 -41 3 -23 -18 7 -8 27 -15 45 -15 62 0 75 58
17 75 -32 9 -40 19 -23 30 5 3 12 1 16 -5 7 -12 45 -14 45 -2 0 17 -25 32 -55
32 -17 0 -36 -5 -43 -12z"/>
<path d="M8276 5494 c-9 -8 -16 -31 -16 -49 0 -41 22 -65 59 -65 35 0 61 28
61 67 0 54 -67 85 -104 47z m66 -31 c7 -30 -3 -53 -22 -53 -10 0 -20 8 -22 18
-7 29 3 52 22 52 10 0 20 -8 22 -17z"/>
<path d="M8410 5445 c0 -51 3 -65 15 -65 11 0 15 11 15 38 0 45 13 67 34 59
11 -5 16 -19 16 -52 0 -38 3 -45 20 -45 17 0 20 7 20 46 0 25 -5 54 -10 65
-12 21 -50 25 -68 7 -9 -9 -12 -9 -12 0 0 7 -7 12 -15 12 -12 0 -15 -14 -15
-65z"/>
<path d="M8562 5498 c-21 -21 -13 -30 23 -24 43 8 48 -10 5 -19 -36 -8 -52
-32 -39 -57 11 -21 49 -24 67 -6 9 9 12 9 12 0 0 -7 7 -12 15 -12 11 0 15 13
15 53 0 61 -11 77 -55 77 -17 0 -36 -5 -43 -12z m58 -72 c0 -21 -20 -30 -33
-17 -9 9 -8 14 3 21 21 14 30 12 30 -4z"/>
<path d="M8956 5494 c-9 -8 -16 -31 -16 -49 0 -41 22 -65 59 -65 35 0 61 28
61 67 0 54 -67 85 -104 47z m66 -31 c7 -30 -3 -53 -22 -53 -10 0 -20 8 -22 18
-7 29 3 52 22 52 10 0 20 -8 22 -17z"/>
<path d="M9080 5445 c0 -58 2 -65 20 -65 17 0 20 7 20 40 0 29 5 43 20 52 11
7 20 18 20 25 0 16 -12 17 -28 1 -9 -9 -12 -9 -12 0 0 7 -9 12 -20 12 -18 0
-20 -7 -20 -65z"/>
<path d="M9376 5495 c-23 -23 -28 -52 -15 -77 16 -30 28 -38 60 -38 53 0 80
77 41 113 -23 21 -66 22 -86 2z m62 -47 c-3 -36 -31 -50 -42 -22 -10 26 3 54
25 54 17 0 20 -6 17 -32z"/>
<path d="M9560 5445 c0 -58 2 -65 20 -65 18 0 20 7 20 65 0 58 -2 65 -20 65
-18 0 -20 -7 -20 -65z"/>
<path d="M9636 5488 c-49 -69 35 -147 94 -88 41 41 13 110 -45 110 -24 0 -39
-7 -49 -22z m69 -43 c0 -23 -4 -30 -20 -30 -21 0 -31 25 -21 51 11 28 41 12
41 -21z"/>
<path d="M8003 5025 c0 -27 2 -38 4 -22 2 15 2 37 0 50 -2 12 -4 0 -4 -28z"/>
<path d="M8493 5025 c0 -27 2 -38 4 -22 2 15 2 37 0 50 -2 12 -4 0 -4 -28z"/>
<path d="M8563 5025 c0 -27 2 -38 4 -22 2 15 2 37 0 50 -2 12 -4 0 -4 -28z"/>
<path d="M10353 5025 c0 -27 2 -38 4 -22 2 15 2 37 0 50 -2 12 -4 0 -4 -28z"/>
<path d="M10793 5025 c0 -27 2 -38 4 -22 2 15 2 37 0 50 -2 12 -4 0 -4 -28z"/>
<path d="M10973 5025 c-1 -27 1 -42 4 -32 2 9 10 17 16 17 9 0 9 2 1 8 -7 4
-14 18 -17 32 -2 14 -4 3 -4 -25z"/>
<path d="M11273 5025 c0 -27 2 -38 4 -22 2 15 2 37 0 50 -2 12 -4 0 -4 -28z"/>
<path d="M8770 5026 c0 -19 3 -37 8 -40 4 -2 6 13 4 35 -5 48 -12 51 -12 5z"/>
<path d="M7842 5025 c0 -16 2 -22 5 -12 2 9 2 23 0 30 -3 6 -5 -1 -5 -18z"/>
<path d="M8389 5012 c5 -34 6 -35 9 -8 2 16 0 32 -5 37 -5 5 -7 -7 -4 -29z"/>
<path d="M8459 5012 c5 -34 6 -35 9 -8 2 16 0 32 -5 37 -5 5 -7 -7 -4 -29z"/>
<path d="M9010 5046 c0 -2 9 -6 20 -9 11 -3 18 -1 14 4 -5 9 -34 13 -34 5z"/>
<path d="M9800 5046 c0 -2 7 -7 16 -10 8 -3 12 -2 9 4 -6 10 -25 14 -25 6z"/>
<path d="M10138 5043 c7 -3 16 -2 19 1 4 3 -2 6 -13 5 -11 0 -14 -3 -6 -6z"/>
<path d="M10240 5046 c0 -2 9 -6 20 -9 11 -3 18 -1 14 4 -5 9 -34 13 -34 5z"/>
<path d="M10638 5043 c7 -3 16 -2 19 1 4 3 -2 6 -13 5 -11 0 -14 -3 -6 -6z"/>
<path d="M10918 5043 c7 -3 16 -2 19 1 4 3 -2 6 -13 5 -11 0 -14 -3 -6 -6z"/>
<path d="M11189 5012 c5 -34 6 -35 9 -8 2 16 0 32 -5 37 -5 5 -7 -7 -4 -29z"/>
<path d="M11238 5043 c7 -3 16 -2 19 1 4 3 -2 6 -13 5 -11 0 -14 -3 -6 -6z"/>
<path d="M8236 4993 c-6 -14 -5 -15 5 -6 7 7 10 15 7 18 -3 3 -9 -2 -12 -12z"/>
<path d="M10546 4993 c-6 -14 -5 -15 5 -6 7 7 10 15 7 18 -3 3 -9 -2 -12 -12z"/>
<path d="M8088 4988 c5 -5 16 -8 23 -6 8 3 3 7 -10 11 -17 4 -21 3 -13 -5z"/>
<path d="M8278 4988 c5 -5 16 -8 23 -6 8 3 3 7 -10 11 -17 4 -21 3 -13 -5z"/>
<path d="M8648 4988 c5 -5 16 -8 23 -6 8 3 3 7 -10 11 -17 4 -21 3 -13 -5z"/>
<path d="M9025 4990 c-16 -7 -17 -9 -3 -9 9 -1 20 4 23 9 7 11 7 11 -20 0z"/>
<path d="M9528 4988 c5 -5 16 -8 23 -6 8 3 3 7 -10 11 -17 4 -21 3 -13 -5z"/>
<path d="M10255 4990 c-16 -7 -17 -9 -3 -9 9 -1 20 4 23 9 7 11 7 11 -20 0z"/>
<path d="M10398 4988 c5 -5 16 -8 23 -6 8 3 3 7 -10 11 -17 4 -21 3 -13 -5z"/>
<path d="M7778 4983 c7 -3 16 -2 19 1 4 3 -2 6 -13 5 -11 0 -14 -3 -6 -6z"/>
<path d="M10008 4983 c7 -3 16 -2 19 1 4 3 -2 6 -13 5 -11 0 -14 -3 -6 -6z"/>
<path d="M10138 4983 c7 -3 16 -2 19 1 4 3 -2 6 -13 5 -11 0 -14 -3 -6 -6z"/>
<path d="M10918 4983 c7 -3 16 -2 19 1 4 3 -2 6 -13 5 -11 0 -14 -3 -6 -6z"/>
<path d="M11088 4983 c7 -3 16 -2 19 1 4 3 -2 6 -13 5 -11 0 -14 -3 -6 -6z"/>
<path d="M7983 4835 c0 -27 2 -38 4 -22 2 15 2 37 0 50 -2 12 -4 0 -4 -28z"/>
<path d="M9183 4835 c0 -27 2 -38 4 -22 2 15 2 37 0 50 -2 12 -4 0 -4 -28z"/>
<path d="M10403 4835 c-1 -27 1 -42 4 -32 2 9 10 17 16 17 9 0 9 2 1 8 -7 4
-14 18 -17 32 -2 14 -4 3 -4 -25z"/>
<path d="M7808 4853 c7 -3 16 -2 19 1 4 3 -2 6 -13 5 -11 0 -14 -3 -6 -6z"/>
<path d="M7870 4856 c0 -2 9 -6 20 -9 11 -3 18 -1 14 4 -5 9 -34 13 -34 5z"/>
<path d="M7948 4853 c7 -3 16 -2 19 1 4 3 -2 6 -13 5 -11 0 -14 -3 -6 -6z"/>
<path d="M8348 4853 c7 -3 16 -2 19 1 4 3 -2 6 -13 5 -11 0 -14 -3 -6 -6z"/>
<path d="M8880 4856 c0 -2 9 -6 20 -9 11 -3 18 -1 14 4 -5 9 -34 13 -34 5z"/>
<path d="M9833 4825 c0 -22 2 -30 4 -17 2 12 2 30 0 40 -3 9 -5 -1 -4 -23z"/>
<path d="M9979 4822 c5 -34 6 -35 9 -8 2 16 0 32 -5 37 -5 5 -7 -7 -4 -29z"/>
<path d="M10340 4856 c0 -2 9 -6 20 -9 11 -3 18 -1 14 4 -5 9 -34 13 -34 5z"/>
<path d="M10473 4825 c0 -22 2 -30 4 -17 2 12 2 30 0 40 -3 9 -5 -1 -4 -23z"/>
<path d="M10503 4825 c0 -22 2 -30 4 -17 2 12 2 30 0 40 -3 9 -5 -1 -4 -23z"/>
<path d="M10528 4853 c7 -3 16 -2 19 1 4 3 -2 6 -13 5 -11 0 -14 -3 -6 -6z"/>
<path d="M10750 4856 c0 -2 9 -6 20 -9 11 -3 18 -1 14 4 -5 9 -34 13 -34 5z"/>
<path d="M8942 4820 c0 -19 2 -27 5 -17 2 9 2 25 0 35 -3 9 -5 1 -5 -18z"/>
<path d="M8182 4815 c0 -16 2 -22 5 -12 2 9 2 23 0 30 -3 6 -5 -1 -5 -18z"/>
<path d="M8622 4815 c0 -16 2 -22 5 -12 2 9 2 23 0 30 -3 6 -5 -1 -5 -18z"/>
<path d="M9431 4824 c0 -11 3 -14 6 -6 3 7 2 16 -1 19 -3 4 -6 -2 -5 -13z"/>
<path d="M9551 4824 c0 -11 3 -14 6 -6 3 7 2 16 -1 19 -3 4 -6 -2 -5 -13z"/>
<path d="M9911 4824 c0 -11 3 -14 6 -6 3 7 2 16 -1 19 -3 4 -6 -2 -5 -13z"/>
<path d="M10962 4815 c0 -16 2 -22 5 -12 2 9 2 23 0 30 -3 6 -5 -1 -5 -18z"/>
<path d="M8440 4812 c0 -6 -8 -13 -17 -15 -16 -4 -16 -5 -1 -6 18 -1 34 16 24
26 -3 4 -6 1 -6 -5z"/>
<path d="M9382 4795 c0 -16 2 -22 5 -12 2 9 2 23 0 30 -3 6 -5 -1 -5 -18z"/>
<path d="M11350 4812 c0 -6 -8 -13 -17 -15 -16 -4 -16 -5 -1 -6 18 -1 34 16
24 26 -3 4 -6 1 -6 -5z"/>
<path d="M7885 4800 c-16 -7 -17 -9 -3 -9 9 -1 20 4 23 9 7 11 7 11 -20 0z"/>
<path d="M8895 4800 c-16 -7 -17 -9 -3 -9 9 -1 20 4 23 9 7 11 7 11 -20 0z"/>
<path d="M9068 4798 c5 -5 16 -8 23 -6 8 3 3 7 -10 11 -17 4 -21 3 -13 -5z"/>
<path d="M9228 4798 c5 -5 16 -8 23 -6 8 3 3 7 -10 11 -17 4 -21 3 -13 -5z"/>
<path d="M10355 4800 c-16 -7 -17 -9 -3 -9 9 -1 20 4 23 9 7 11 7 11 -20 0z"/>
<path d="M10765 4800 c-16 -7 -17 -9 -3 -9 9 -1 20 4 23 9 7 11 7 11 -20 0z"/>
<path d="M10998 4798 c5 -5 16 -8 23 -6 8 3 3 7 -10 11 -17 4 -21 3 -13 -5z"/>
<path d="M8348 4793 c7 -3 16 -2 19 1 4 3 -2 6 -13 5 -11 0 -14 -3 -6 -6z"/>
<path d="M11248 4793 c7 -3 16 -2 19 1 4 3 -2 6 -13 5 -11 0 -14 -3 -6 -6z"/>
<path d="M7793 4645 c0 -27 2 -38 4 -22 2 15 2 37 0 50 -2 12 -4 0 -4 -28z"/>
<path d="M8283 4645 c-1 -27 1 -42 4 -32 2 9 10 17 16 17 9 0 9 2 1 8 -7 4
-14 18 -17 32 -2 14 -4 3 -4 -25z"/>
<path d="M8493 4645 c-1 -27 1 -42 4 -32 2 9 10 17 16 17 9 0 9 2 1 8 -7 4
-14 18 -17 32 -2 14 -4 3 -4 -25z"/>
<path d="M8593 4645 c0 -27 2 -38 4 -22 2 15 2 37 0 50 -2 12 -4 0 -4 -28z"/>
<path d="M8623 4645 c0 -27 2 -38 4 -22 2 15 2 37 0 50 -2 12 -4 0 -4 -28z"/>
<path d="M10223 4645 c0 -27 2 -38 4 -22 2 15 2 37 0 50 -2 12 -4 0 -4 -28z"/>
<path d="M10733 4645 c0 -27 2 -38 4 -22 2 15 2 37 0 50 -2 12 -4 0 -4 -28z"/>
<path d="M7818 4663 c7 -3 16 -2 19 1 4 3 -2 6 -13 5 -11 0 -14 -3 -6 -6z"/>
<path d="M7943 4635 c0 -22 2 -30 4 -17 2 12 2 30 0 40 -3 9 -5 -1 -4 -23z"/>
<path d="M7973 4635 c0 -22 2 -30 4 -17 2 12 2 30 0 40 -3 9 -5 -1 -4 -23z"/>
<path d="M8563 4635 c0 -22 2 -30 4 -17 2 12 2 30 0 40 -3 9 -5 -1 -4 -23z"/>
<path d="M8829 4632 c5 -34 6 -35 9 -8 2 16 0 32 -5 37 -5 5 -7 -7 -4 -29z"/>
<path d="M8863 4635 c0 -22 2 -30 4 -17 2 12 2 30 0 40 -3 9 -5 -1 -4 -23z"/>
<path d="M8888 4663 c7 -3 16 -2 19 1 4 3 -2 6 -13 5 -11 0 -14 -3 -6 -6z"/>
<path d="M9148 4663 c7 -3 16 -2 19 1 4 3 -2 6 -13 5 -11 0 -14 -3 -6 -6z"/>
<path d="M9273 4635 c0 -22 2 -30 4 -17 2 12 2 30 0 40 -3 9 -5 -1 -4 -23z"/>
<path d="M9468 4663 c7 -3 16 -2 19 1 4 3 -2 6 -13 5 -11 0 -14 -3 -6 -6z"/>
<path d="M9540 4666 c0 -2 7 -7 16 -10 8 -3 12 -2 9 4 -6 10 -25 14 -25 6z"/>
<path d="M10098 4663 c7 -3 16 -2 19 1 4 3 -2 6 -13 5 -11 0 -14 -3 -6 -6z"/>
<path d="M10189 4632 c5 -34 6 -35 9 -8 2 16 0 32 -5 37 -5 5 -7 -7 -4 -29z"/>
<path d="M9752 4625 c0 -16 2 -22 5 -12 2 9 2 23 0 30 -3 6 -5 -1 -5 -18z"/>
<path d="M10381 4634 c0 -11 3 -14 6 -6 3 7 2 16 -1 19 -3 4 -6 -2 -5 -13z"/>
<path d="M10882 4625 c0 -16 2 -22 5 -12 2 9 2 23 0 30 -3 6 -5 -1 -5 -18z"/>
<path d="M8686 4613 c-6 -14 -5 -15 5 -6 7 7 10 15 7 18 -3 3 -9 -2 -12 -12z"/>
<path d="M9638 4608 c5 -5 16 -8 23 -6 8 3 3 7 -10 11 -17 4 -21 3 -13 -5z"/>
<path d="M10918 4608 c5 -5 16 -8 23 -6 8 3 3 7 -10 11 -17 4 -21 3 -13 -5z"/>
<path d="M9148 4603 c7 -3 16 -2 19 1 4 3 -2 6 -13 5 -11 0 -14 -3 -6 -6z"/>
<path d="M9468 4603 c7 -3 16 -2 19 1 4 3 -2 6 -13 5 -11 0 -14 -3 -6 -6z"/>
<path d="M10098 4603 c7 -3 16 -2 19 1 4 3 -2 6 -13 5 -11 0 -14 -3 -6 -6z"/>
<path d="M8010 4456 c0 -19 3 -37 8 -40 4 -2 6 13 4 35 -5 48 -12 51 -12 5z"/>
<path d="M7768 4473 c7 -3 16 -2 19 1 4 3 -2 6 -13 5 -11 0 -14 -3 -6 -6z"/>
<path d="M8178 4473 c7 -3 16 -2 19 1 4 3 -2 6 -13 5 -11 0 -14 -3 -6 -6z"/>
<path d="M8633 4440 c0 -25 2 -35 4 -22 2 12 2 32 0 45 -2 12 -4 2 -4 -23z"/>
<path d="M9158 4473 c7 -3 16 -2 19 1 4 3 -2 6 -13 5 -11 0 -14 -3 -6 -6z"/>
<path d="M8442 4440 c0 -19 2 -27 5 -17 2 9 2 25 0 35 -3 9 -5 1 -5 -18z"/>
<path d="M9212 4440 c0 -19 2 -27 5 -17 2 9 2 25 0 35 -3 9 -5 1 -5 -18z"/>
<path d="M8886 4423 c-6 -14 -5 -15 5 -6 7 7 10 15 7 18 -3 3 -9 -2 -12 -12z"/>
<path d="M8668 4418 c5 -5 16 -8 23 -6 8 3 3 7 -10 11 -17 4 -21 3 -13 -5z"/>
<path d="M8928 4418 c5 -5 16 -8 23 -6 8 3 3 7 -10 11 -17 4 -21 3 -13 -5z"/>
<path d="M7768 4413 c7 -3 16 -2 19 1 4 3 -2 6 -13 5 -11 0 -14 -3 -6 -6z"/>
<path d="M7948 4413 c7 -3 16 -2 19 1 4 3 -2 6 -13 5 -11 0 -14 -3 -6 -6z"/>
<path d="M8178 4413 c7 -3 16 -2 19 1 4 3 -2 6 -13 5 -11 0 -14 -3 -6 -6z"/>
<path d="M8378 4413 c7 -3 16 -2 19 1 4 3 -2 6 -13 5 -11 0 -14 -3 -6 -6z"/>
<path d="M9158 4413 c7 -3 16 -2 19 1 4 3 -2 6 -13 5 -11 0 -14 -3 -6 -6z"/>
<path d="M2430 4039 l0 -60 -22 15 c-48 34 -111 15 -134 -40 -36 -87 46 -170
128 -130 28 15 33 15 40 1 5 -8 18 -15 30 -15 18 0 20 4 14 31 -3 17 -6 83 -6
145 l0 114 -25 0 c-24 0 -25 -3 -25 -61z m-16 -88 c25 -27 17 -72 -15 -90 -24
-13 -29 -13 -53 2 -19 13 -26 26 -26 50 0 18 5 38 12 45 18 18 63 14 82 -7z"/>
<path d="M2890 3955 l0 -145 25 0 c24 0 25 2 25 63 0 69 17 97 57 97 27 0 33
-18 33 -96 0 -62 1 -64 25 -64 25 0 25 1 25 78 0 114 -33 149 -105 112 l-35
-18 0 59 c0 56 -1 59 -25 59 l-25 0 0 -145z"/>
<path d="M3890 4041 l0 -59 -36 18 c-65 33 -126 -7 -128 -84 -2 -78 68 -125
136 -92 28 15 33 15 40 1 5 -8 18 -15 30 -15 18 0 20 4 14 31 -3 17 -6 83 -6
145 l0 114 -25 0 c-24 0 -25 -3 -25 -59z m-18 -88 c25 -23 23 -68 -4 -87 -31
-22 -45 -20 -74 9 -25 26 -26 52 -2 83 15 17 58 15 80 -5z"/>
<path d="M2657 3968 c-25 -68 -49 -131 -52 -140 -6 -14 -2 -18 18 -18 20 0 28
7 38 35 13 34 14 35 69 35 54 0 56 -1 65 -32 8 -26 16 -34 37 -36 l28 -3 -26
68 c-15 37 -38 101 -53 141 -23 65 -29 72 -52 72 -25 0 -30 -8 -72 -122z m96
0 c8 -25 13 -49 9 -52 -8 -8 -72 -8 -72 1 0 21 35 112 41 106 3 -5 13 -29 22
-55z"/>
<path d="M4100 3950 l0 -140 25 0 c23 0 25 4 25 44 0 36 4 45 21 49 23 6 50
-16 74 -62 12 -24 22 -31 45 -31 l30 0 -31 51 -31 50 20 22 c29 33 35 61 18
101 -18 44 -46 56 -132 56 l-64 0 0 -140z m150 71 c7 -13 7 -28 0 -45 -8 -23
-15 -26 -55 -26 l-45 0 0 45 0 45 45 0 c34 0 47 -5 55 -19z"/>
<path d="M7792 4015 c-44 -19 -62 -65 -62 -160 0 -97 18 -141 64 -160 53 -22
3699 -22 3752 0 46 19 64 63 64 160 0 97 -18 141 -64 160 -52 22 -3704 22
-3754 0z m1674 -127 c-3 -13 -5 -33 -5 -45 -1 -13 -5 -23 -10 -23 -12 0 -19
56 -9 74 13 24 28 19 24 -6z m-201 -28 c0 -32 -3 -35 -32 -38 -32 -3 -33 -3
-33 38 0 41 1 41 33 38 29 -3 32 -6 32 -38z m408 5 c-2 -26 1 -30 24 -32 22
-1 24 1 10 8 -25 15 -22 41 5 37 15 -2 23 -11 25 -30 4 -27 2 -28 -37 -26 -25
1 -44 7 -50 17 -8 14 -9 14 -10 -1 0 -10 -7 -18 -15 -18 -11 0 -15 11 -15 41
0 39 1 40 33 37 29 -3 32 -6 30 -33z m177 -5 c0 -22 -4 -40 -10 -40 -5 0 -10
14 -10 31 0 17 -4 28 -10 24 -5 -3 -10 1 -10 9 0 9 9 16 20 16 17 0 20 -7 20
-40z m67 25 c3 -9 -2 -24 -12 -34 -16 -18 -15 -20 2 -24 10 -3 3 -5 -16 -6
l-34 -1 21 23 c23 24 29 47 13 47 -5 0 -11 -6 -14 -12 -2 -7 -8 -10 -12 -6
-11 11 4 28 26 28 11 0 22 -7 26 -15z m68 -25 c0 -31 -3 -35 -25 -35 -19 0
-26 6 -28 23 -5 36 5 54 30 50 19 -2 23 -9 23 -38z m79 28 c5 -10 7 -10 12 0
9 20 52 14 59 -8 14 -45 -21 -83 -50 -54 -13 14 -17 14 -31 0 -31 -32 -66 11
-48 58 7 19 50 21 58 4z m-764 -34 c0 -14 4 -23 10 -19 6 3 10 15 10 26 0 22
35 27 43 7 4 -10 8 -9 16 2 16 24 21 7 9 -33 -6 -20 -17 -38 -25 -41 -10 -4
-13 -1 -8 14 3 11 2 28 -4 37 -9 16 -10 16 -11 -4 0 -19 -6 -23 -30 -23 -27 0
-30 3 -30 30 0 17 5 30 10 30 6 0 10 -12 10 -26z m231 9 c1 -17 2 -17 6 0 2 9
14 17 26 17 16 0 18 -3 9 -12 -7 -7 -12 -20 -12 -30 0 -20 -20 -25 -21 -5 0
10 -2 10 -6 0 -7 -18 -52 -16 -59 2 -10 25 4 45 31 45 17 0 25 -6 26 -17z
m239 -33 c0 -5 -4 -10 -10 -10 -5 0 -10 5 -10 10 0 6 5 10 10 10 6 0 10 -4 10
-10z"/>
<path d="M9230 3880 c0 -5 5 -10 11 -10 5 0 7 5 4 10 -3 6 -8 10 -11 10 -2 0
-4 -4 -4 -10z"/>
<path d="M9230 3840 c0 -5 5 -10 10 -10 6 0 10 5 10 10 0 6 -4 10 -10 10 -5 0
-10 -4 -10 -10z"/>
<path d="M9640 3874 c0 -8 5 -12 10 -9 6 4 8 11 5 16 -9 14 -15 11 -15 -7z"/>
<path d="M9950 3860 c0 -16 5 -30 10 -30 6 0 10 14 10 30 0 17 -4 30 -10 30
-5 0 -10 -13 -10 -30z"/>
<path d="M10024 3876 c-8 -21 3 -49 16 -41 5 3 10 15 10 25 0 25 -18 36 -26
16z"/>
<path d="M10094 3876 c-8 -21 3 -49 16 -41 5 3 10 15 10 25 0 25 -18 36 -26
16z"/>
<path d="M9494 3859 c-3 -6 -1 -16 5 -22 8 -8 11 -5 11 11 0 24 -5 28 -16 11z"/>
<path d="M3370 4013 c-8 -3 -23 -12 -32 -21 -16 -14 -20 -13 -36 1 -10 10 -34
17 -52 17 -18 0 -42 -7 -52 -17 -17 -15 -18 -15 -18 0 0 11 -8 17 -25 17 l-25
0 0 -100 0 -100 25 0 c24 0 25 2 25 63 0 49 4 68 18 80 45 41 72 13 72 -75 0
-66 1 -68 25 -68 24 0 25 2 25 63 0 49 4 68 18 80 45 41 72 6 72 -89 0 -47 2
-54 20 -54 18 0 20 7 20 83 0 51 -5 89 -12 99 -15 19 -47 28 -68 21z"/>
<path d="M3555 4008 c-46 -10 -57 -18 -47 -35 5 -9 18 -9 49 0 32 8 45 8 57
-2 31 -26 19 -41 -34 -41 -37 0 -55 -5 -70 -20 -56 -56 17 -123 92 -86 28 15
33 15 40 1 5 -8 18 -15 29 -15 18 0 19 5 13 73 -9 110 -43 143 -129 125z m75
-121 c0 -21 -22 -37 -51 -37 -31 0 -44 13 -35 35 7 19 86 21 86 2z"/>
<path d="M4648 4012 c-59 -2 -78 -6 -78 -17 0 -10 16 -15 57 -17 l56 -3 -56
-66 c-79 -92 -77 -99 28 -99 78 0 85 2 85 20 0 16 -8 19 -55 22 l-56 3 55 65
c53 62 65 85 49 92 -5 2 -43 2 -85 0z"/>
<path d="M1880 3995 c0 -8 8 -15 18 -15 21 0 42 -18 42 -37 0 -8 -12 -13 -31
-13 -38 0 -35 -24 4 -28 39 -5 37 -41 -3 -48 -20 -5 -30 -12 -30 -25 0 -19 20
-17 48 5 10 7 16 6 23 -7 6 -9 19 -17 29 -17 18 0 19 5 14 78 -8 91 -28 122
-81 122 -23 0 -33 -5 -33 -15z"/>
<path d="M2068 4003 c-10 -2 -18 -13 -18 -24 0 -22 -2 -22 39 -8 42 15 81 4
81 -21 0 -17 -7 -20 -48 -20 -38 0 -53 -5 -70 -23 -29 -31 -28 -51 4 -76 32
-25 49 -26 89 -5 27 14 31 14 41 0 6 -9 19 -16 29 -16 15 0 17 6 11 38 -3 20
-6 55 -6 78 0 59 -27 84 -88 83 -26 -1 -55 -3 -64 -6z m102 -122 c0 -29 -70
-45 -85 -21 -14 23 5 40 45 40 33 0 40 -3 40 -19z"/>
<path d="M4367 3998 c-29 -22 -7 -40 32 -27 38 13 81 -1 81 -26 0 -11 -12 -15
-50 -15 -37 0 -55 -5 -70 -20 -56 -56 17 -123 92 -86 28 15 33 15 40 1 5 -8
18 -15 30 -15 18 0 20 4 14 31 -3 17 -6 51 -6 76 0 63 -32 93 -98 93 -26 0
-56 -6 -65 -12z m113 -104 c2 -3 -1 -13 -6 -22 -14 -22 -67 -27 -83 -8 -25 30
60 58 89 30z"/>
<path d="M4794 3996 c-26 -20 -6 -43 24 -27 29 15 58 14 76 -5 26 -26 18 -34
-32 -34 -59 0 -92 -21 -92 -59 0 -50 57 -74 112 -47 28 15 33 15 40 1 5 -8 18
-15 29 -15 18 0 20 5 15 38 -3 20 -8 58 -12 85 -4 32 -13 52 -27 62 -27 19
-107 19 -133 1z m116 -109 c0 -22 -23 -37 -56 -37 -31 0 -51 21 -38 41 9 15
94 11 94 -4z"/>
<path d="M6960 3641 c0 -6 6 -13 13 -18 8 -5 0 -10 -23 -14 l-35 -6 33 -2 c34
-1 39 -9 20 -31 -7 -8 -1 -4 15 9 l27 25 -22 23 c-24 25 -28 27 -28 14z"/>
<path d="M2653 3565 c0 -33 2 -45 4 -27 2 18 2 45 0 60 -2 15 -4 0 -4 -33z"/>
<path d="M1898 3592 c9 -10 19 -17 21 -16 6 5 -20 34 -30 34 -5 0 -1 -8 9 -18z"/>
<path d="M2335 3601 c-3 -6 -12 -29 -21 -53 -10 -29 -11 -39 -2 -30 18 18 55
15 68 -5 9 -15 10 -14 4 7 -3 14 -11 32 -16 40 -8 12 -9 12 -4 -2 4 -14 0 -18
-19 -18 -22 0 -23 2 -13 31 8 23 13 27 19 17 6 -9 9 -9 9 -1 0 16 -17 26 -25
14z"/>
<path d="M1962 3578 c-24 -24 -2 -78 31 -78 6 0 1 7 -11 16 -30 21 -26 56 8
65 21 6 22 7 5 8 -12 1 -26 -4 -33 -11z"/>
<path d="M2421 3540 l2 -45 6 40 c5 35 9 40 33 40 14 -1 24 3 22 7 -3 5 -19 7
-35 6 -28 -2 -29 -4 -28 -48z"/>
<path d="M2535 3579 c-11 -16 -2 -17 25 -2 24 12 24 13 3 13 -12 0 -25 -5 -28
-11z"/>
<path d="M2599 3583 c-1 -5 0 -16 1 -26 1 -10 -3 -24 -9 -31 -8 -9 -7 -13 4
-13 11 0 15 11 15 39 0 21 -2 38 -5 38 -3 0 -6 -3 -6 -7z"/>
<path d="M2691 3580 c0 -8 8 -30 18 -49 l18 -34 17 43 c9 23 15 44 12 47 -2 2
-10 -13 -17 -34 l-12 -38 -18 40 c-10 22 -18 33 -18 25z"/>
<path d="M2797 3583 c-15 -14 -6 -33 18 -39 14 -3 25 -10 25 -14 0 -16 -21
-22 -35 -10 -9 7 -15 8 -15 2 0 -13 26 -23 45 -16 23 9 18 33 -10 44 -33 12
-33 34 0 28 13 -3 22 -1 19 3 -6 11 -38 12 -47 2z"/>
<path d="M2888 3583 c6 -2 18 -2 25 0 6 3 1 5 -13 5 -14 0 -19 -2 -12 -5z"/>
<path d="M2492 3535 c0 -16 2 -22 5 -12 2 9 2 23 0 30 -3 6 -5 -1 -5 -18z"/>
<path d="M1901 3527 c-13 -21 -12 -21 5 -5 10 10 16 20 13 22 -3 3 -11 -5 -18
-17z"/>
<path d="M2530 3530 c6 -11 13 -20 16 -20 2 0 0 9 -6 20 -6 11 -13 20 -16 20
-2 0 0 -9 6 -20z"/>
<path d="M2170 3200 c-9 -16 -8 -20 5 -20 9 0 13 5 9 11 -3 6 0 15 7 20 10 6
10 9 2 9 -7 0 -17 -9 -23 -20z"/>
<path d="M1883 3155 c0 -22 2 -30 4 -17 2 12 2 30 0 40 -3 9 -5 -1 -4 -23z"/>
<path d="M1910 3156 c0 -42 17 -49 22 -8 4 33 22 32 26 -3 5 -37 24 -30 20 8
-3 28 -7 32 -35 35 -32 3 -33 2 -33 -32z"/>
<path d="M2337 3183 c-3 -5 5 -8 18 -8 13 0 21 3 18 8 -2 4 -10 7 -18 7 -8 0
-16 -3 -18 -7z"/>
<path d="M2410 3151 c0 -23 2 -41 4 -41 8 0 12 71 4 76 -4 3 -8 -13 -8 -35z"/>
<path d="M2470 3151 c0 -23 2 -41 4 -41 8 0 12 71 4 76 -4 3 -8 -13 -8 -35z"/>
<path d="M2921 3174 c0 -11 3 -14 6 -6 3 7 2 16 -1 19 -3 4 -6 -2 -5 -13z"/>
<path d="M2967 3183 c-4 -3 -7 -11 -7 -17 0 -6 5 -5 12 2 6 6 9 14 7 17 -3 3
-9 2 -12 -2z"/>
<path d="M3050 3175 c-26 -31 13 -82 44 -56 19 16 21 42 4 59 -16 16 -33 15
-48 -3z m45 -25 c0 -16 -6 -26 -18 -28 -19 -4 -32 20 -23 44 9 25 41 13 41
-16z"/>
<path d="M3219 3163 c-13 -16 -20 -25 -15 -21 5 4 16 2 25 -4 13 -10 14 -10 4
2 -10 11 -9 17 4 32 9 10 14 18 11 18 -2 0 -15 -12 -29 -27z"/>
<path d="M2892 3150 c0 -19 2 -27 5 -17 2 9 2 25 0 35 -3 9 -5 1 -5 -18z"/>
<path d="M3011 3164 c0 -11 3 -14 6 -6 3 7 2 16 -1 19 -3 4 -6 -2 -5 -13z"/>
<path d="M2320 3147 c0 -20 22 -37 45 -36 17 1 16 2 -5 8 -15 4 -24 14 -24 24
1 9 -2 17 -7 17 -5 0 -9 -6 -9 -13z"/>
<path d="M2260 3131 c0 -6 4 -13 10 -16 6 -3 7 1 4 9 -7 18 -14 21 -14 7z"/>
<path d="M2997 3133 c-4 -3 -7 -11 -7 -17 0 -6 5 -5 12 2 6 6 9 14 7 17 -3 3
-9 2 -12 -2z"/>
<path d="M2758 3113 c7 -3 16 -2 19 1 4 3 -2 6 -13 5 -11 0 -14 -3 -6 -6z"/>
<path d="M7758 2983 c7 -3 16 -2 19 1 4 3 -2 6 -13 5 -11 0 -14 -3 -6 -6z"/>
<path d="M7883 2950 c0 -25 2 -35 4 -22 2 12 2 32 0 45 -2 12 -4 2 -4 -23z"/>
<path d="M9711 2956 c-1 -29 -4 -37 -16 -32 -8 3 -15 1 -15 -4 0 -15 30 -12
36 4 3 8 4 27 1 43 -3 23 -4 21 -6 -11z"/>
<path d="M9974 2978 c-4 -6 -3 -8 4 -4 7 4 12 -7 15 -31 l4 -38 1 43 c2 40 -9
55 -24 30z"/>
<path d="M10086 2981 c-4 -5 3 -7 14 -4 26 7 25 -7 -1 -41 l-20 -26 28 1 c16
1 21 3 11 6 -16 4 -16 6 -2 28 9 13 13 29 9 35 -8 12 -32 13 -39 1z"/>
<path d="M10154 2976 c-11 -28 0 -61 20 -61 11 0 20 6 22 13 1 7 0 8 -3 2 -11
-22 -33 -9 -33 20 0 29 22 42 33 20 3 -6 4 -5 3 2 -4 19 -35 22 -42 4z"/>
<path d="M10226 2981 c-4 -5 3 -7 14 -4 27 7 26 -14 -2 -44 l-21 -23 29 1 c18
1 22 3 11 6 -17 4 -18 6 -2 24 10 10 15 25 12 34 -7 16 -32 20 -41 6z"/>
<path d="M10319 2985 c-3 -5 -3 -26 1 -45 3 -20 8 -29 11 -20 6 18 -4 79 -12
65z"/>
<path d="M7988 2963 c7 -3 16 -2 19 1 4 3 -2 6 -13 5 -11 0 -14 -3 -6 -6z"/>
<path d="M9743 2946 c1 -17 9 -31 17 -33 10 -3 11 -2 4 4 -7 4 -14 19 -17 33
-4 22 -5 21 -4 -4z"/>
<path d="M9782 2940 c0 -19 2 -27 5 -17 2 9 2 25 0 35 -3 9 -5 1 -5 -18z"/>
<path d="M9812 2940 c0 -19 2 -27 5 -17 2 9 2 25 0 35 -3 9 -5 1 -5 -18z"/>
<path d="M9836 2963 c7 -4 14 -19 17 -33 4 -22 5 -21 4 4 -1 17 -9 31 -17 33
-10 3 -11 2 -4 -4z"/>
<path d="M9890 2963 c8 -3 19 -11 23 -17 6 -7 7 -6 4 4 -2 8 -12 16 -23 17
-13 2 -15 1 -4 -4z"/>
<path d="M10295 2949 c-4 -6 -5 -12 -2 -15 2 -3 7 2 10 11 7 17 1 20 -8 4z"/>
<path d="M7758 2943 c7 -3 16 -2 19 1 4 3 -2 6 -13 5 -11 0 -14 -3 -6 -6z"/>
<path d="M9870 2939 c0 -5 5 -7 10 -4 6 3 10 8 10 11 0 2 -4 4 -10 4 -5 0 -10
-5 -10 -11z"/>
<path d="M8062 2924 c-7 -8 -8 -14 -3 -14 10 0 25 19 20 25 -2 1 -10 -3 -17
-11z"/>
<path d="M7977 2919 c7 -7 15 -10 18 -7 3 3 -2 9 -12 12 -14 6 -15 5 -6 -5z"/>
<path d="M7928 2913 c7 -3 16 -2 19 1 4 3 -2 6 -13 5 -11 0 -14 -3 -6 -6z"/>
<path d="M8118 2913 c7 -3 16 -2 19 1 4 3 -2 6 -13 5 -11 0 -14 -3 -6 -6z"/>
<path d="M9888 2913 c6 -2 18 -2 25 0 6 3 1 5 -13 5 -14 0 -19 -2 -12 -5z"/>
<path d="M10021 2904 c0 -11 3 -14 6 -6 3 7 2 16 -1 19 -3 4 -6 -2 -5 -13z"/>
<path d="M7756 2731 c-4 -5 3 -7 14 -4 23 6 26 13 6 13 -8 0 -17 -4 -20 -9z"/>
<path d="M7890 2702 c0 -17 3 -33 8 -35 9 -6 8 50 -1 60 -4 3 -7 -8 -7 -25z"/>
<path d="M9680 2700 c0 -16 4 -31 9 -34 5 -4 7 3 4 15 -3 12 0 24 6 29 10 5 9
9 -3 13 -12 5 -16 0 -16 -23z"/>
<path d="M10048 2725 c-6 -7 2 -54 11 -59 7 -5 7 52 -1 59 -2 3 -7 3 -10 0z"/>
<path d="M7846 2713 c7 -4 14 -19 17 -33 4 -22 5 -21 4 4 -1 17 -9 31 -17 33
-10 3 -11 2 -4 -4z"/>
<path d="M7935 2710 c-3 -6 1 -7 9 -4 18 7 21 14 7 14 -6 0 -13 -4 -16 -10z"/>
<path d="M9724 2706 c-9 -23 3 -46 23 -45 17 1 17 2 1 6 -21 5 -24 43 -4 43 8
0 17 -5 19 -10 3 -6 4 -5 3 2 -4 19 -35 22 -42 4z"/>
<path d="M9791 2688 c2 -31 2 -31 6 -5 2 15 8 27 13 27 5 0 11 -12 13 -27 4
-26 4 -26 6 5 1 26 -3 32 -19 32 -16 0 -20 -6 -19 -32z"/>
<path d="M9846 2713 c7 -4 14 -19 17 -33 4 -22 5 -21 4 4 -1 17 -9 31 -17 33
-10 3 -11 2 -4 -4z"/>
<path d="M9890 2678 c0 -24 4 -38 8 -32 4 6 15 13 25 17 26 10 18 51 -10 55
-21 3 -23 -1 -23 -40z m40 12 c0 -11 -7 -20 -15 -20 -8 0 -15 9 -15 20 0 11 7
20 15 20 8 0 15 -9 15 -20z"/>
<path d="M10000 2712 c8 -4 17 -16 18 -27 6 -33 14 -33 10 0 -2 21 -9 31 -23
32 -15 2 -16 1 -5 -5z"/>
<path d="M10094 2705 c-9 -23 3 -45 23 -44 17 1 17 2 1 6 -10 2 -18 13 -18 23
0 10 8 21 18 23 16 4 16 5 -1 6 -10 0 -20 -6 -23 -14z"/>
<path d="M9980 2681 c0 -10 19 -25 25 -20 1 2 -3 10 -11 17 -8 7 -14 8 -14 3z"/>
<path d="M7758 2668 c5 -5 16 -8 23 -6 8 3 3 7 -10 11 -17 4 -21 3 -13 -5z"/>
<path d="M7827 2669 c7 -7 15 -10 18 -7 3 3 -2 9 -12 12 -14 6 -15 5 -6 -5z"/>
<path d="M7938 2668 c5 -5 16 -8 23 -6 8 3 3 7 -10 11 -17 4 -21 3 -13 -5z"/>
<path d="M2956 1195 c-9 -14 -12 -25 -6 -25 5 0 10 -16 10 -35 0 -47 20 -45
22 3 2 51 2 55 11 70 16 24 -21 12 -37 -13z"/>
<path d="M3150 1210 c0 -5 5 -10 10 -10 6 0 10 5 10 10 0 6 -4 10 -10 10 -5 0
-10 -4 -10 -10z"/>
<path d="M3770 1210 c0 -5 5 -10 10 -10 6 0 10 5 10 10 0 6 -4 10 -10 10 -5 0
-10 -4 -10 -10z"/>
<path d="M1890 1155 c0 -30 5 -55 10 -55 6 0 10 9 10 20 0 15 7 20 25 20 31 0
52 34 34 56 -6 8 -27 14 -45 14 l-34 0 0 -55z m58 22 c2 -12 -3 -17 -17 -17
-15 0 -21 6 -21 21 0 25 33 22 38 -4z"/>
<path d="M2540 1155 c0 -30 5 -55 10 -55 6 0 10 25 10 55 0 30 -4 55 -10 55
-5 0 -10 -25 -10 -55z"/>
<path d="M2620 1155 c0 -30 5 -55 10 -55 6 0 10 9 10 19 0 12 8 21 21 23 55 8
50 68 -6 68 l-35 0 0 -55z m58 22 c2 -12 -3 -17 -17 -17 -15 0 -21 6 -21 21 0
25 33 22 38 -4z"/>
<path d="M2887 1197 c-10 -26 8 -92 26 -95 9 -2 17 1 17 7 0 6 -4 11 -10 11
-14 0 -12 48 2 52 9 3 8 9 -4 21 -20 20 -24 21 -31 4z"/>
<path d="M3110 1155 c0 -30 5 -55 10 -55 6 0 10 25 10 55 0 30 -4 55 -10 55
-5 0 -10 -25 -10 -55z"/>
<path d="M3335 1178 c18 -81 38 -101 50 -48 10 43 23 46 31 5 9 -51 28 -43 46
20 11 41 12 55 3 55 -6 0 -16 -17 -21 -37 l-10 -38 -10 34 c-13 46 -32 51 -40
12 -9 -44 -21 -47 -28 -6 -4 19 -12 35 -17 35 -7 0 -8 -12 -4 -32z"/>
<path d="M3580 1157 l0 -54 35 -1 c30 -1 36 2 41 25 9 33 -8 59 -35 56 -13 -2
-21 3 -21 12 0 8 -4 15 -10 15 -5 0 -10 -24 -10 -53z m58 -15 c2 -14 -2 -22
-12 -22 -19 0 -29 17 -22 36 8 22 30 12 34 -14z"/>
<path d="M3817 1197 c-10 -26 8 -92 26 -95 9 -2 17 1 17 7 0 6 -4 11 -10 11
-14 0 -12 48 2 52 9 3 8 9 -4 21 -20 20 -24 21 -31 4z"/>
<path d="M4023 1203 c13 -3 17 -15 17 -54 0 -27 5 -49 10 -49 6 0 10 22 10 49
0 43 3 50 23 54 12 2 0 4 -28 4 -27 1 -42 -1 -32 -4z"/>
<path d="M4450 1155 c0 -30 5 -55 10 -55 6 0 10 25 10 55 0 30 -4 55 -10 55
-5 0 -10 -25 -10 -55z"/>
<path d="M4587 1197 c-2 -7 -2 -30 2 -52 5 -29 12 -41 26 -43 16 -3 18 -1 8 9
-15 16 -17 59 -3 59 6 0 5 8 -2 20 -15 23 -24 25 -31 7z"/>
<path d="M2006 1174 c-31 -30 -13 -74 30 -74 13 0 26 5 30 12 5 7 0 9 -14 6
-12 -4 -26 0 -33 8 -9 11 -6 14 20 14 36 0 43 23 12 40 -25 13 -27 13 -45 -6z
m44 -14 c0 -5 -9 -10 -21 -10 -11 0 -17 5 -14 10 3 6 13 10 21 10 8 0 14 -4
14 -10z"/>
<path d="M2090 1144 c0 -24 5 -44 10 -44 6 0 10 14 10 30 0 18 6 33 15 36 23
9 18 19 -10 20 -23 2 -25 -1 -25 -42z"/>
<path d="M2173 1183 c-23 -9 -14 -40 12 -47 14 -4 23 -11 20 -15 -3 -5 -15 -7
-27 -3 -14 3 -19 2 -14 -6 10 -17 41 -15 56 3 15 18 5 35 -21 35 -10 0 -19 5
-19 11 0 6 9 9 20 6 24 -6 27 8 4 17 -9 3 -16 6 -17 5 -1 0 -8 -3 -14 -6z"/>
<path d="M2256 1174 c-19 -18 -20 -28 -6 -55 14 -26 56 -25 70 2 9 16 8 26 -5
45 -18 28 -37 31 -59 8z m44 -29 c0 -15 -6 -25 -14 -25 -16 0 -25 19 -18 38 8
22 32 13 32 -13z"/>
<path d="M2350 1143 c0 -24 5 -43 10 -43 6 0 10 16 10 35 0 24 5 35 15 35 10
0 15 -11 15 -35 0 -19 5 -35 10 -35 11 0 14 79 3 81 -5 1 -20 2 -35 3 -26 2
-28 0 -28 -41z"/>
<path d="M2463 1183 c-21 -8 -15 -22 7 -16 11 3 20 1 20 -5 0 -6 -10 -12 -22
-14 -15 -2 -23 -10 -23 -23 0 -16 7 -20 38 -22 36 -1 37 0 37 33 0 23 -6 37
-19 44 -11 5 -21 10 -23 9 -2 0 -9 -3 -15 -6z m27 -58 c-7 -8 -16 -12 -21 -9
-13 8 -1 24 18 24 13 0 13 -3 3 -15z"/>
<path d="M2730 1176 c-28 -35 11 -93 48 -70 23 15 27 48 7 68 -20 20 -39 20
-55 2z m45 -31 c0 -11 -8 -21 -17 -23 -14 -3 -18 3 -18 23 0 20 4 26 18 23 9
-2 17 -12 17 -23z"/>
<path d="M2820 1144 c0 -24 5 -44 10 -44 6 0 10 14 10 30 0 18 6 33 15 36 23
9 18 22 -10 22 -23 0 -25 -4 -25 -44z"/>
<path d="M3016 1174 c-19 -18 -20 -28 -6 -55 14 -26 56 -25 70 2 9 16 8 26 -5
45 -18 28 -37 31 -59 8z m44 -29 c0 -15 -6 -25 -14 -25 -16 0 -25 19 -18 38 8
22 32 13 32 -13z"/>
<path d="M3150 1145 c0 -25 5 -45 10 -45 6 0 10 20 10 45 0 25 -4 45 -10 45
-5 0 -10 -20 -10 -45z"/>
<path d="M3205 1174 c-20 -20 -16 -53 8 -68 36 -23 75 35 47 70 -16 18 -35 18
-55 -2z m45 -29 c0 -25 -23 -35 -35 -15 -10 16 2 40 20 40 9 0 15 -9 15 -25z"/>
<path d="M3496 1174 c-31 -30 -13 -74 30 -74 13 0 26 5 30 12 5 7 0 9 -14 6
-12 -4 -26 0 -33 8 -9 11 -6 14 20 14 36 0 43 23 12 40 -25 13 -27 13 -45 -6z
m44 -14 c0 -5 -9 -10 -21 -10 -11 0 -17 5 -14 10 3 6 13 10 21 10 8 0 14 -4
14 -10z"/>
<path d="M3692 1178 c-18 -18 -15 -27 14 -38 30 -12 24 -30 -9 -23 -17 4 -19
3 -11 -6 16 -18 58 -10 62 11 2 12 -6 21 -22 28 -33 12 -34 24 -1 16 27 -7 35
8 9 18 -22 8 -28 8 -42 -6z"/>
<path d="M3770 1145 c0 -25 5 -45 10 -45 6 0 10 20 10 45 0 25 -4 45 -10 45
-5 0 -10 -20 -10 -45z"/>
<path d="M3886 1174 c-19 -18 -20 -28 -6 -55 12 -21 55 -26 66 -7 5 7 0 9 -14
6 -12 -4 -26 0 -33 8 -9 11 -6 14 20 14 32 0 41 16 19 38 -16 16 -33 15 -52
-4z m44 -14 c0 -5 -9 -10 -21 -10 -11 0 -17 5 -14 10 3 6 13 10 21 10 8 0 14
-4 14 -10z"/>
<path d="M4116 1174 c-31 -30 -13 -74 30 -74 13 0 26 5 30 12 5 7 0 9 -14 6
-12 -4 -26 0 -33 8 -9 11 -6 14 20 14 36 0 43 23 12 40 -25 13 -27 13 -45 -6z
m44 -14 c0 -5 -9 -10 -21 -10 -11 0 -17 5 -14 10 3 6 13 10 21 10 8 0 14 -4
14 -10z"/>
<path d="M4200 1143 c0 -50 17 -59 22 -11 4 46 28 49 28 4 0 -44 18 -48 22 -4
4 46 28 49 28 4 0 -20 5 -36 11 -36 6 0 9 17 7 42 l-3 42 -57 1 -58 1 0 -43z"/>
<path d="M4350 1128 c0 -32 4 -58 10 -58 6 0 10 9 10 19 0 14 5 18 19 14 23
-6 45 29 36 57 -7 22 -7 22 -47 24 -28 2 -28 1 -28 -56z m54 26 c8 -20 -1 -34
-20 -34 -8 0 -14 10 -14 25 0 28 24 34 34 9z"/>
<path d="M4499 1174 c-11 -13 -9 -14 14 -9 16 5 27 3 27 -3 0 -6 -10 -12 -22
-14 -15 -2 -23 -10 -23 -23 0 -16 7 -20 33 -22 30 -1 32 1 32 31 0 50 -34 73
-61 40z m39 -46 c-6 -18 -28 -21 -28 -4 0 9 7 16 16 16 9 0 14 -5 12 -12z"/>
<path d="M4656 1174 c-31 -30 -13 -74 30 -74 13 0 26 5 30 12 5 7 0 9 -14 6
-12 -4 -26 0 -33 8 -9 11 -6 14 20 14 36 0 43 23 12 40 -25 13 -27 13 -45 -6z
m44 -14 c0 -5 -9 -10 -21 -10 -11 0 -17 5 -14 10 3 6 13 10 21 10 8 0 14 -4
14 -10z"/>
<path d="M6372 793 c-4 -10 -5 -34 -1 -53 6 -35 6 -35 9 -5 1 17 3 40 4 53 3
27 0 28 -12 5z"/>
<path d="M2151 753 c0 -43 1 -45 10 -23 l10 25 19 -22 c10 -13 21 -23 25 -23
4 0 2 6 -4 14 -8 10 -9 21 -3 33 14 27 4 43 -29 43 -28 0 -29 -2 -28 -47z m49
22 c0 -8 -9 -15 -20 -15 -11 0 -20 7 -20 15 0 8 9 15 20 15 11 0 20 -7 20 -15z"/>
<path d="M2900 755 c0 -38 3 -45 19 -45 11 0 27 7 35 16 31 31 13 74 -31 74
-21 0 -23 -5 -23 -45z m54 19 c8 -20 -11 -54 -29 -54 -10 0 -15 11 -15 35 0
28 4 35 19 35 10 0 22 -7 25 -16z"/>
<path d="M3401 758 c-1 -46 0 -48 27 -47 23 2 24 2 5 6 -13 2 -23 11 -23 18 0
7 10 16 23 18 22 4 22 4 0 6 -14 1 -23 9 -26 24 -2 12 -5 1 -6 -25z"/>
<path d="M4593 755 c0 -27 2 -38 4 -22 2 15 2 37 0 50 -2 12 -4 0 -4 -28z"/>
<path d="M4763 755 c0 -27 2 -38 4 -22 2 15 2 37 0 50 -2 12 -4 0 -4 -28z"/>
<path d="M5389 789 c-2 -27 3 -64 9 -71 4 -4 6 11 5 33 -1 39 -12 67 -14 38z"/>
<path d="M5733 755 c0 -27 2 -38 4 -22 2 15 2 37 0 50 -2 12 -4 0 -4 -28z"/>
<path d="M5763 755 c0 -27 2 -38 4 -22 2 15 2 37 0 50 -2 12 -4 0 -4 -28z"/>
<path d="M2234 766 c-15 -39 23 -74 50 -46 8 9 6 11 -11 6 -12 -4 -24 -2 -28
4 -4 6 4 10 20 10 20 0 26 4 23 18 -4 22 -46 29 -54 8z m41 -6 c3 -5 -3 -10
-15 -10 -12 0 -18 5 -15 10 3 6 10 10 15 10 5 0 12 -4 15 -10z"/>
<path d="M2310 760 c0 -11 7 -20 15 -20 8 0 15 -5 15 -11 0 -6 -9 -8 -22 -4
-18 6 -20 4 -12 -5 14 -15 46 -10 52 8 2 7 -5 16 -17 19 -12 3 -21 10 -21 15
0 5 10 6 21 3 15 -5 19 -4 15 4 -12 19 -46 13 -46 -9z"/>
<path d="M2381 730 c1 -25 3 -38 6 -29 2 11 11 15 22 12 21 -5 35 20 26 48 -4
12 -15 18 -31 17 -22 -2 -24 -7 -23 -48z m42 27 c3 -8 1 -20 -4 -28 -11 -19
-34 3 -26 25 8 20 23 21 30 3z"/>
<path d="M2460 766 c-27 -33 18 -72 48 -42 13 13 14 20 6 34 -15 23 -38 26
-54 8z m40 -21 c0 -16 -6 -25 -15 -25 -9 0 -15 9 -15 25 0 16 6 25 15 25 9 0
15 -9 15 -25z"/>
<path d="M2530 745 c0 -19 5 -35 10 -35 6 0 10 16 10 35 0 19 -4 35 -10 35 -5
0 -10 -16 -10 -35z"/>
<path d="M2567 769 c6 -8 13 -25 16 -39 4 -17 5 -15 4 9 -1 21 -8 36 -17 39
-12 4 -13 2 -3 -9z"/>
<path d="M2615 770 c-8 -14 3 -30 21 -30 8 0 14 -5 14 -11 0 -6 -9 -9 -20 -6
-11 3 -18 1 -14 -4 11 -18 44 -10 44 11 0 11 -6 20 -14 20 -8 0 -18 5 -22 12
-5 8 0 9 14 6 12 -4 22 -2 22 3 0 12 -37 11 -45 -1z"/>
<path d="M2680 745 c0 -19 5 -35 10 -35 6 0 10 16 10 35 0 19 -4 35 -10 35 -5
0 -10 -16 -10 -35z"/>
<path d="M2723 745 c12 -42 24 -44 37 -9 15 38 10 54 -5 19 l-13 -30 -7 28
c-4 15 -11 27 -15 27 -5 0 -3 -16 3 -35z"/>
<path d="M2790 765 c-23 -28 17 -72 42 -47 8 8 5 9 -11 5 -12 -3 -21 -1 -21 6
0 6 11 11 25 11 23 0 24 2 15 20 -13 24 -33 26 -50 5z m40 -5 c0 -5 -7 -10
-15 -10 -8 0 -15 5 -15 10 0 6 7 10 15 10 8 0 15 -4 15 -10z"/>
<path d="M2994 766 c-15 -39 23 -74 50 -46 8 9 6 11 -11 6 -12 -4 -24 -2 -28
4 -4 6 5 10 20 10 21 0 26 4 21 16 -3 9 -6 18 -6 20 0 11 -41 2 -46 -10z m41
-6 c3 -5 -3 -10 -15 -10 -12 0 -18 5 -15 10 3 6 10 10 15 10 5 0 12 -4 15 -10z"/>
<path d="M3065 770 c-8 -14 3 -30 21 -30 8 0 14 -5 14 -11 0 -6 -9 -8 -22 -4
-18 6 -20 4 -12 -5 14 -15 46 -10 52 8 2 7 -5 16 -17 19 -12 3 -21 10 -21 15
0 6 7 8 15 4 8 -3 15 -1 15 4 0 13 -37 13 -45 0z"/>
<path d="M3130 745 c0 -19 5 -35 10 -35 6 0 10 16 10 35 0 19 -4 35 -10 35 -5
0 -10 -16 -10 -35z"/>
<path d="M3165 760 c-7 -22 9 -50 28 -50 7 0 7 4 -1 12 -16 16 -15 45 1 51 7
3 6 6 -5 6 -9 1 -20 -8 -23 -19z"/>
<path d="M3209 753 c-2 -55 -4 -58 -24 -55 -16 3 -18 1 -7 -9 21 -23 47 2 50
50 2 24 -1 41 -7 41 -6 0 -12 -12 -12 -27z"/>
<path d="M3253 745 c0 -22 2 -30 4 -17 2 12 2 30 0 40 -3 9 -5 -1 -4 -23z"/>
<path d="M3277 772 c6 -4 13 -21 16 -37 4 -27 4 -27 6 8 1 29 -3 37 -16 37
-12 0 -14 -3 -6 -8z"/>
<path d="M3486 771 c-3 -5 2 -7 13 -4 16 4 20 -1 24 -29 l5 -33 -2 35 c-1 34
-26 54 -40 31z"/>
<path d="M3555 770 c-8 -14 3 -30 21 -30 17 0 19 -17 2 -23 -9 -2 -8 -4 1 -3
23 2 25 27 2 33 -26 7 -27 20 -3 26 15 4 15 5 0 6 -9 0 -20 -3 -23 -9z"/>
<path d="M3663 745 c0 -22 2 -30 4 -17 2 12 2 30 0 40 -3 9 -5 -1 -4 -23z"/>
<path d="M3693 745 c0 -22 2 -30 4 -17 2 12 2 30 0 40 -3 9 -5 -1 -4 -23z"/>
<path d="M3763 774 c27 -8 20 -27 -8 -22 -15 3 -25 1 -25 -7 0 -7 11 -10 31
-7 34 5 38 35 4 39 -16 1 -16 1 -2 -3z"/>
<path d="M3815 770 c-8 -14 3 -30 21 -30 17 0 19 -17 2 -23 -9 -2 -8 -4 1 -3
23 2 25 27 2 33 -26 7 -27 20 -3 26 15 4 15 5 0 6 -9 0 -20 -3 -23 -9z"/>
<path d="M3984 766 c-11 -28 1 -51 26 -53 22 -1 22 -1 3 4 -16 3 -23 12 -23
28 0 17 7 25 23 28 l22 4 -23 2 c-12 0 -25 -5 -28 -13z"/>
<path d="M4103 745 c0 -22 2 -30 4 -17 2 12 2 30 0 40 -3 9 -5 -1 -4 -23z"/>
<path d="M4133 745 c0 -22 2 -30 4 -17 2 12 2 30 0 40 -3 9 -5 -1 -4 -23z"/>
<path d="M4225 769 c-4 -6 -4 -13 -1 -16 3 -4 6 -1 6 6 0 8 8 11 20 8 11 -3
18 -1 14 4 -7 12 -31 11 -39 -2z"/>
<path d="M4310 776 c0 -2 9 -6 20 -9 11 -3 18 -1 14 4 -5 9 -34 13 -34 5z"/>
<path d="M4373 745 c0 -22 2 -30 4 -17 2 12 2 30 0 40 -3 9 -5 -1 -4 -23z"/>
<path d="M4428 773 c7 -3 16 -2 19 1 4 3 -2 6 -13 5 -11 0 -14 -3 -6 -6z"/>
<path d="M4478 773 c7 -3 16 -2 19 1 4 3 -2 6 -13 5 -11 0 -14 -3 -6 -6z"/>
<path d="M4514 766 c-11 -28 1 -51 26 -53 22 -1 22 -1 3 4 -16 3 -23 12 -23
28 0 17 7 25 23 28 l22 4 -23 2 c-12 0 -25 -5 -28 -13z"/>
<path d="M4623 745 c0 -22 2 -30 4 -17 2 12 2 30 0 40 -3 9 -5 -1 -4 -23z"/>
<path d="M4657 774 c-4 -4 -7 -12 -7 -18 0 -6 4 -5 9 3 11 17 41 7 41 -14 0
-21 -30 -31 -41 -14 -6 10 -9 11 -9 1 0 -21 30 -26 48 -8 13 13 14 20 6 34
-12 19 -36 27 -47 16z"/>
<path d="M4794 766 c-11 -28 1 -51 26 -53 22 -1 22 -1 3 4 -16 3 -23 12 -23
28 0 17 7 25 23 28 l22 4 -23 2 c-12 0 -25 -5 -28 -13z"/>
<path d="M4877 774 c-4 -4 -7 -12 -7 -18 0 -6 4 -5 9 3 11 17 41 7 41 -14 0
-21 -30 -31 -41 -14 -6 10 -9 11 -9 1 0 -21 30 -26 48 -8 13 13 14 20 6 34
-12 19 -36 27 -47 16z"/>
<path d="M4967 763 c-14 -17 -13 -20 11 -37 l27 -20 -19 22 c-15 18 -16 24 -6
37 17 21 7 19 -13 -2z"/>
<path d="M5028 773 c6 -2 18 -2 25 0 6 3 1 5 -13 5 -14 0 -19 -2 -12 -5z"/>
<path d="M5127 773 c-3 -5 5 -8 18 -8 13 0 21 3 18 8 -2 4 -10 7 -18 7 -8 0
-16 -3 -18 -7z"/>
<path d="M5205 770 c-3 -6 1 -7 9 -4 18 7 21 14 7 14 -6 0 -13 -4 -16 -10z"/>
<path d="M5244 766 c-11 -28 1 -51 26 -53 22 -1 22 -1 3 4 -31 6 -29 23 2 23
14 0 25 4 25 9 0 4 -11 6 -25 3 -14 -2 -25 0 -25 6 0 6 10 13 23 15 l22 4 -23
2 c-12 0 -25 -5 -28 -13z"/>
<path d="M5328 773 c6 -2 18 -2 25 0 6 3 1 5 -13 5 -14 0 -19 -2 -12 -5z"/>
<path d="M5477 774 c-4 -4 -7 -12 -7 -18 0 -6 4 -5 9 3 11 17 41 7 41 -14 0
-21 -30 -31 -41 -14 -6 10 -9 11 -9 1 0 -21 30 -26 48 -8 13 13 14 20 6 34
-12 19 -36 27 -47 16z"/>
<path d="M5556 771 c-3 -5 2 -7 13 -4 16 4 20 -1 24 -29 l5 -33 -2 35 c-1 34
-26 54 -40 31z"/>
<path d="M5678 773 c12 -2 22 -8 22 -13 0 -5 -10 -11 -22 -13 -23 -4 -23 -4
-1 -6 12 0 24 -9 27 -18 2 -10 4 -2 3 17 -2 30 -6 35 -27 37 -22 1 -22 1 -2
-4z"/>
<path d="M5837 773 c-3 -5 5 -8 18 -8 13 0 21 3 18 8 -2 4 -10 7 -18 7 -8 0
-16 -3 -18 -7z"/>
<path d="M5933 774 c27 -8 20 -27 -8 -22 -15 3 -25 1 -25 -7 0 -7 11 -10 31
-7 34 5 38 35 4 39 -16 1 -16 1 -2 -3z"/>
<path d="M6053 745 c0 -22 2 -30 4 -17 2 12 2 30 0 40 -3 9 -5 -1 -4 -23z"/>
<path d="M6085 769 c-4 -6 -4 -13 -1 -16 3 -4 6 -1 6 6 0 8 8 11 20 8 11 -3
18 -1 14 4 -7 12 -31 11 -39 -2z"/>
<path d="M6154 766 c-11 -28 1 -51 26 -53 22 -1 22 -1 3 4 -31 6 -29 23 2 23
14 0 25 4 25 9 0 4 -11 6 -25 3 -14 -2 -25 0 -25 6 0 6 10 13 23 15 l22 4 -23
2 c-12 0 -25 -5 -28 -13z"/>
<path d="M6238 773 c6 -2 18 -2 25 0 6 3 1 5 -13 5 -14 0 -19 -2 -12 -5z"/>
<path d="M6413 745 c0 -22 2 -30 4 -17 2 12 2 30 0 40 -3 9 -5 -1 -4 -23z"/>
<path d="M6467 773 c-3 -5 5 -8 18 -8 13 0 21 3 18 8 -2 4 -10 7 -18 7 -8 0
-16 -3 -18 -7z"/>
<path d="M6533 745 c0 -22 2 -30 4 -17 2 12 2 30 0 40 -3 9 -5 -1 -4 -23z"/>
<path d="M6557 773 c6 -4 13 -22 16 -38 4 -27 5 -27 3 4 0 21 -7 36 -16 38
-10 3 -11 2 -3 -4z"/>
<path d="M6597 772 c6 -4 13 -21 16 -37 4 -27 4 -27 6 8 1 29 -3 37 -16 37
-12 0 -14 -3 -6 -8z"/>
<path d="M4031 744 c0 -11 3 -14 6 -6 3 7 2 16 -1 19 -3 4 -6 -2 -5 -13z"/>
<path d="M4291 744 c0 -11 3 -14 6 -6 3 7 2 16 -1 19 -3 4 -6 -2 -5 -13z"/>
<path d="M4561 744 c0 -11 3 -14 6 -6 3 7 2 16 -1 19 -3 4 -6 -2 -5 -13z"/>
<path d="M4841 744 c0 -11 3 -14 6 -6 3 7 2 16 -1 19 -3 4 -6 -2 -5 -13z"/>
<path d="M3927 732 c1 -8 3 -19 3 -25 0 -7 4 -6 10 3 12 19 13 33 1 26 -5 -4
-11 -3 -14 1 -2 5 -2 2 0 -5z"/>
<path d="M5030 746 c0 -2 7 -7 16 -10 8 -3 12 -2 9 4 -6 10 -25 14 -25 6z"/>
<path d="M5315 740 c-3 -5 -3 -14 0 -20 8 -12 32 -13 39 -1 4 5 -3 7 -14 4
-11 -3 -20 -1 -20 5 0 6 10 13 23 15 22 4 22 4 0 6 -12 0 -25 -3 -28 -9z"/>
<path d="M6240 746 c0 -2 7 -7 16 -10 8 -3 12 -2 9 4 -6 10 -25 14 -25 6z"/>
<path d="M4221 724 c0 -11 3 -14 6 -6 3 7 2 16 -1 19 -3 4 -6 -2 -5 -13z"/>
<path d="M5990 731 c0 -5 5 -13 10 -16 6 -3 10 -2 10 4 0 5 -4 13 -10 16 -5 3
-10 2 -10 -4z"/>
<path d="M6080 732 c0 -18 29 -27 43 -13 9 9 8 11 -7 5 -11 -4 -21 -2 -27 7
-6 10 -9 11 -9 1z"/>
<path d="M3620 720 c0 -6 7 -10 15 -10 8 0 15 2 15 4 0 2 -7 6 -15 10 -8 3
-15 1 -15 -4z"/>
<path d="M3765 720 c-16 -7 -17 -9 -3 -9 9 -1 20 4 23 9 7 11 7 11 -20 0z"/>
<path d="M4067 719 c7 -7 15 -10 18 -7 3 3 -2 9 -12 12 -14 6 -15 5 -6 -5z"/>
<path d="M4250 720 c-9 -6 -10 -10 -3 -10 6 0 15 5 18 10 8 12 4 12 -15 0z"/>
<path d="M4325 720 c-16 -7 -17 -9 -3 -9 9 -1 20 4 23 9 7 11 7 11 -20 0z"/>
<path d="M4430 720 c0 -5 5 -10 11 -10 5 0 7 5 4 10 -3 6 -8 10 -11 10 -2 0
-4 -4 -4 -10z"/>
<path d="M5018 718 c5 -5 16 -8 23 -6 8 3 3 7 -10 11 -17 4 -21 3 -13 -5z"/>
<path d="M5127 719 c7 -7 15 -10 18 -7 3 3 -2 9 -12 12 -14 6 -15 5 -6 -5z"/>
<path d="M5837 718 c2 -5 10 -8 18 -8 8 0 16 3 18 8 3 4 -5 7 -18 7 -13 0 -21
-3 -18 -7z"/>
<path d="M5935 720 c-16 -7 -17 -9 -3 -9 9 -1 20 4 23 9 7 11 7 11 -20 0z"/>
<path d="M6228 718 c5 -5 16 -8 23 -6 8 3 3 7 -10 11 -17 4 -21 3 -13 -5z"/>
<path d="M6467 718 c2 -5 10 -8 18 -8 8 0 16 3 18 8 3 4 -5 7 -18 7 -13 0 -21
-3 -18 -7z"/>
<path d="M5668 713 c7 -3 16 -2 19 1 4 3 -2 6 -13 5 -11 0 -14 -3 -6 -6z"/>
<path d="M5127 689 c7 -7 15 -10 18 -7 3 3 -2 9 -12 12 -14 6 -15 5 -6 -5z"/>
<path d="M2200 567 c0 -8 -10 -13 -21 -13 -12 1 -24 -6 -26 -14 -4 -12 -3 -13
5 -1 12 17 42 7 42 -14 0 -21 -30 -31 -42 -14 -8 12 -9 11 -5 -1 2 -8 16 -15
30 -16 25 -1 27 2 27 42 0 24 -2 44 -5 44 -3 0 -5 -6 -5 -13z"/>
<path d="M2373 535 c-1 -27 1 -42 4 -32 2 9 7 17 10 17 3 0 12 -8 20 -17 13
-16 13 -16 3 5 -9 18 -8 27 2 40 10 14 8 13 -9 -1 -21 -19 -22 -18 -26 10 -2
15 -4 6 -4 -22z"/>
<path d="M3093 535 c0 -27 2 -38 4 -22 2 15 2 37 0 50 -2 12 -4 0 -4 -28z"/>
<path d="M2234 546 c-11 -28 1 -51 26 -53 22 -1 22 -1 3 4 -13 2 -23 8 -23 13
0 5 10 11 23 13 l22 4 -22 2 c-13 0 -23 6 -23 12 0 6 9 9 20 6 11 -3 18 -1 14
4 -8 14 -34 11 -40 -5z"/>
<path d="M2305 550 c-8 -14 3 -30 21 -30 8 0 14 -5 14 -11 0 -7 -9 -9 -21 -6
-16 4 -19 3 -11 -5 12 -12 42 -4 42 13 0 6 -9 13 -20 16 -25 7 -26 20 -2 26
15 4 15 5 0 6 -9 0 -20 -3 -23 -9z"/>
<path d="M2448 553 c7 -3 16 -2 19 1 4 3 -2 6 -13 5 -11 0 -14 -3 -6 -6z"/>
<path d="M2500 556 c0 -2 9 -6 20 -9 11 -3 18 -1 14 4 -5 9 -34 13 -34 5z"/>
<path d="M2563 515 c0 -27 2 -38 4 -22 2 15 2 37 0 50 -2 12 -4 0 -4 -28z"/>
<path d="M2593 554 c20 -6 24 -50 5 -57 -8 -2 -7 -3 2 -3 10 1 15 12 15 31 0
22 -5 30 -20 32 -16 1 -16 1 -2 -3z"/>
<path d="M2645 550 c-8 -14 3 -30 21 -30 17 0 19 -17 2 -23 -9 -2 -8 -4 1 -3
23 2 25 27 2 33 -26 7 -27 20 -3 26 15 4 15 5 0 6 -9 0 -20 -3 -23 -9z"/>
<path d="M2748 553 c7 -3 16 -2 19 1 4 3 -2 6 -13 5 -11 0 -14 -3 -6 -6z"/>
<path d="M2797 554 c-4 -4 -7 -12 -7 -18 0 -6 4 -5 9 3 11 17 41 7 41 -14 0
-21 -30 -31 -41 -14 -6 10 -9 11 -9 1 0 -21 30 -26 48 -8 13 13 14 20 6 34
-12 19 -36 27 -47 16z"/>
<path d="M2903 525 c0 -22 2 -30 4 -17 2 12 2 30 0 40 -3 9 -5 -1 -4 -23z"/>
<path d="M2927 553 c6 -4 13 -22 16 -38 4 -27 5 -27 3 4 0 21 -7 36 -16 38
-10 3 -11 2 -3 -4z"/>
<path d="M2967 553 c6 -4 13 -22 16 -38 4 -27 5 -27 3 4 0 21 -7 36 -16 38
-10 3 -11 2 -3 -4z"/>
<path d="M3014 546 c-11 -28 1 -51 26 -53 22 -1 22 -1 3 4 -16 3 -23 12 -23
28 0 17 7 25 23 28 l22 4 -23 2 c-12 0 -25 -5 -28 -13z"/>
<path d="M3123 554 c20 -6 24 -50 5 -57 -8 -2 -7 -3 2 -3 10 1 15 12 15 31 0
22 -5 30 -20 32 -16 1 -16 1 -2 -3z"/>
<path d="M3234 546 c-11 -28 1 -51 26 -53 22 -1 22 -1 3 4 -13 2 -23 8 -23 13
0 5 10 11 23 13 l22 4 -22 2 c-13 0 -23 6 -23 12 0 6 9 9 20 6 11 -3 18 -1 14
4 -8 14 -34 11 -40 -5z"/>
<path d="M3343 515 c0 -27 2 -38 4 -22 2 15 2 37 0 50 -2 12 -4 0 -4 -28z"/>
<path d="M3368 553 c7 -3 16 -2 19 1 4 3 -2 6 -13 5 -11 0 -14 -3 -6 -6z"/>
<path d="M3420 552 c0 -6 9 -8 19 -5 16 4 20 -1 24 -29 l5 -33 -2 35 c-1 28
-5 36 -23 38 -13 2 -23 -1 -23 -6z"/>
<path d="M3494 546 c-11 -28 1 -51 26 -53 22 -1 22 -1 3 4 -16 3 -23 12 -23
28 0 17 7 25 23 28 l22 4 -23 2 c-12 0 -25 -5 -28 -13z"/>
<path d="M3573 525 c0 -22 2 -30 4 -17 2 12 2 30 0 40 -3 9 -5 -1 -4 -23z"/>
<path d="M3590 556 c0 -2 7 -6 15 -10 8 -3 15 -1 15 4 0 6 -7 10 -15 10 -8 0
-15 -2 -15 -4z"/>
<path d="M3673 554 c27 -8 20 -27 -8 -22 -15 3 -25 1 -25 -7 0 -7 11 -10 31
-7 34 5 38 35 4 39 -16 1 -16 1 -2 -3z"/>
<path d="M3725 550 c-8 -14 3 -30 21 -30 17 0 19 -17 2 -23 -9 -2 -8 -4 1 -3
23 2 25 27 2 33 -26 7 -27 20 -3 26 15 4 15 5 0 6 -9 0 -20 -3 -23 -9z"/>
<path d="M2481 524 c0 -11 3 -14 6 -6 3 7 2 16 -1 19 -3 4 -6 -2 -5 -13z"/>
<path d="M3061 524 c0 -11 3 -14 6 -6 3 7 2 16 -1 19 -3 4 -6 -2 -5 -13z"/>
<path d="M3391 524 c0 -11 3 -14 6 -6 3 7 2 16 -1 19 -3 4 -6 -2 -5 -13z"/>
<path d="M3541 524 c0 -11 3 -14 6 -6 3 7 2 16 -1 19 -3 4 -6 -2 -5 -13z"/>
<path d="M2515 500 c-16 -7 -17 -9 -3 -9 9 -1 20 4 23 9 7 11 7 11 -20 0z"/>
<path d="M2750 500 c0 -5 5 -10 11 -10 5 0 7 5 4 10 -3 6 -8 10 -11 10 -2 0
-4 -4 -4 -10z"/>
<path d="M3675 500 c-16 -7 -17 -9 -3 -9 9 -1 20 4 23 9 7 11 7 11 -20 0z"/>
<path d="M3368 493 c7 -3 16 -2 19 1 4 3 -2 6 -13 5 -11 0 -14 -3 -6 -6z"/>
<path d="M2157 183 c-11 -11 -8 -58 5 -71 16 -16 43 -15 58 3 15 18 -1 20 -18
3 -16 -16 -44 9 -40 36 3 22 48 37 48 17 0 -6 4 -11 10 -11 5 0 7 7 4 15 -6
15 -55 21 -67 8z"/>
<path d="M2398 180 c-5 -17 3 -80 11 -80 7 0 6 79 -2 86 -3 3 -7 0 -9 -6z"/>
<path d="M2810 147 c0 -38 3 -43 25 -45 29 -2 48 24 34 50 -5 10 -16 18 -24
18 -8 0 -15 5 -15 10 0 6 -4 10 -10 10 -5 0 -10 -19 -10 -43z m47 -3 c8 -22
-15 -44 -26 -25 -10 16 -4 41 10 41 5 0 12 -7 16 -16z"/>
<path d="M2893 145 c0 -27 2 -38 4 -22 2 15 2 37 0 50 -2 12 -4 0 -4 -28z"/>
<path d="M3037 176 c-6 -16 6 -29 37 -40 15 -5 17 -9 7 -19 -9 -9 -17 -8 -34
2 -20 13 -21 13 -8 -3 18 -21 55 -17 59 6 2 12 -6 21 -22 28 -35 13 -34 34 0
26 17 -5 23 -3 19 4 -9 15 -52 12 -58 -4z"/>
<path d="M3268 177 c-8 -22 7 -70 22 -75 12 -4 13 -2 3 9 -15 15 -17 46 -4 51
5 2 3 8 -4 15 -10 9 -14 9 -17 0z"/>
<path d="M3980 177 c0 -8 -10 -13 -21 -13 -12 1 -24 -6 -26 -14 -4 -12 -3 -13
5 -1 12 17 42 7 42 -14 0 -21 -30 -31 -42 -14 -8 12 -9 11 -5 -1 2 -8 16 -15
30 -16 25 -1 27 2 27 42 0 24 -2 44 -5 44 -3 0 -5 -6 -5 -13z"/>
<path d="M4493 145 c0 -27 2 -38 4 -22 2 15 2 37 0 50 -2 12 -4 0 -4 -28z"/>
<path d="M4973 145 c0 -27 2 -38 4 -22 2 15 2 37 0 50 -2 12 -4 0 -4 -28z"/>
<path d="M5810 180 c0 -5 5 -10 10 -10 6 0 10 5 10 10 0 6 -4 10 -10 10 -5 0
-10 -4 -10 -10z"/>
<path d="M5871 149 c-1 -44 0 -46 26 -45 14 1 28 8 30 16 4 12 3 13 -5 1 -12
-17 -42 -7 -42 14 0 21 30 31 42 14 8 -12 9 -11 5 1 -2 8 -12 15 -23 15 -10 0
-22 7 -26 15 -4 8 -7 -6 -7 -31z"/>
<path d="M6190 181 c0 -6 4 -13 10 -16 6 -3 7 1 4 9 -7 18 -14 21 -14 7z"/>
<path d="M6267 148 c8 -59 13 -61 13 -5 0 26 -4 47 -9 47 -5 0 -7 -19 -4 -42z"/>
<path d="M6495 165 c0 -13 3 -21 8 -18 4 2 7 10 7 18 0 8 -3 16 -7 18 -5 3 -8
-5 -8 -18z"/>
<path d="M6829 174 c-3 -20 3 -59 9 -66 4 -4 7 9 6 28 -1 31 -12 60 -15 38z"/>
<path d="M2240 148 c0 -33 12 -47 38 -45 18 1 22 7 21 37 -1 34 -1 34 -8 6 -9
-41 -31 -46 -31 -7 0 17 -4 31 -10 31 -5 0 -10 -10 -10 -22z"/>
<path d="M2325 160 c-8 -14 3 -30 21 -30 8 0 14 -5 14 -11 0 -6 -9 -9 -20 -6
-11 3 -18 1 -14 -4 11 -18 44 -10 44 11 0 11 -6 20 -14 20 -8 0 -18 5 -22 12
-5 8 0 9 14 6 12 -4 22 -2 22 3 0 12 -37 11 -45 -1z"/>
<path d="M2444 156 c-11 -29 0 -51 26 -51 21 0 25 5 25 30 0 24 -5 31 -23 33
-13 2 -24 -3 -28 -12z m43 -12 c8 -21 -13 -42 -28 -27 -13 13 -5 43 11 43 6 0
13 -7 17 -16z"/>
<path d="M2523 135 c0 -22 2 -30 4 -17 2 12 2 30 0 40 -3 9 -5 -1 -4 -23z"/>
<path d="M2550 156 c5 -5 11 -21 11 -35 1 -25 2 -25 8 3 9 42 29 44 34 4 l4
-33 1 37 c2 35 1 36 -33 35 -23 -1 -32 -4 -25 -11z"/>
<path d="M2633 135 c0 -22 2 -30 4 -17 2 12 2 30 0 40 -3 9 -5 -1 -4 -23z"/>
<path d="M2683 163 c15 -4 16 -6 2 -26 -21 -30 -19 -37 13 -36 16 1 20 3 10 6
-22 6 -22 8 -2 38 16 25 16 25 -12 24 -17 -1 -22 -3 -11 -6z"/>
<path d="M2740 160 c0 -6 5 -8 10 -5 6 3 16 3 22 -1 9 -6 5 -10 -12 -14 -35
-8 -32 -35 3 -36 26 -1 28 2 25 30 -2 23 -9 32 -25 34 -13 2 -23 -2 -23 -8z
m35 -40 c-3 -5 -10 -10 -16 -10 -5 0 -9 5 -9 10 0 6 7 10 16 10 8 0 12 -4 9
-10z"/>
<path d="M2930 156 c-23 -28 17 -73 42 -48 8 8 5 9 -9 6 -12 -3 -24 -1 -27 5
-5 7 3 11 19 11 20 0 26 4 23 17 -4 23 -31 28 -48 9z m40 -6 c0 -5 -9 -10 -21
-10 -11 0 -17 5 -14 10 3 6 13 10 21 10 8 0 14 -4 14 -10z"/>
<path d="M3120 155 c-23 -28 17 -72 42 -47 8 8 5 9 -11 5 -12 -3 -21 -1 -21 6
0 6 11 11 25 11 23 0 24 2 15 20 -13 24 -33 26 -50 5z m40 -5 c0 -5 -7 -10
-15 -10 -8 0 -15 5 -15 10 0 6 7 10 15 10 8 0 15 -4 15 -10z"/>
<path d="M3194 156 c-15 -39 22 -74 49 -47 9 9 5 11 -13 9 -19 -2 -25 2 -25
17 0 15 6 19 23 18 13 -2 21 1 17 7 -9 15 -45 12 -51 -4z"/>
<path d="M3310 135 c0 -19 5 -35 10 -35 6 0 10 16 10 35 0 19 -4 35 -10 35 -5
0 -10 -16 -10 -35z"/>
<path d="M3350 156 c-27 -33 18 -72 48 -42 13 13 14 20 6 34 -15 23 -38 26
-54 8z m40 -21 c0 -16 -6 -25 -15 -25 -9 0 -15 9 -15 25 0 16 6 25 15 25 9 0
15 -9 15 -25z"/>
<path d="M3433 135 c0 -22 2 -30 4 -17 2 12 2 30 0 40 -3 9 -5 -1 -4 -23z"/>
<path d="M3457 162 c6 -4 13 -21 16 -37 4 -27 4 -27 6 8 1 29 -3 37 -16 37
-12 0 -14 -3 -6 -8z"/>
<path d="M3505 160 c-8 -14 3 -30 21 -30 8 0 14 -5 14 -11 0 -6 -9 -8 -22 -4
-18 6 -20 4 -12 -5 14 -15 46 -10 52 8 2 7 -5 16 -17 19 -12 3 -21 10 -21 15
0 6 7 8 15 4 8 -3 15 -1 15 4 0 13 -37 13 -45 0z"/>
<path d="M3683 135 c0 -22 2 -30 4 -17 2 12 2 30 0 40 -3 9 -5 -1 -4 -23z"/>
<path d="M3700 166 c0 -2 7 -6 15 -10 8 -3 15 -1 15 4 0 6 -7 10 -15 10 -8 0
-15 -2 -15 -4z"/>
<path d="M3770 166 c0 -2 9 -6 20 -9 11 -3 18 -1 14 4 -5 9 -34 13 -34 5z"/>
<path d="M3903 135 c0 -22 2 -30 4 -17 2 12 2 30 0 40 -3 9 -5 -1 -4 -23z"/>
<path d="M4014 156 c-11 -28 1 -51 26 -53 22 -1 22 -1 3 4 -13 2 -23 8 -23 13
0 5 10 11 23 13 l22 4 -22 2 c-13 0 -23 6 -23 12 0 6 9 9 20 6 11 -3 18 -1 14
4 -8 14 -34 11 -40 -5z"/>
<path d="M4098 163 c6 -2 18 -2 25 0 6 3 1 5 -13 5 -14 0 -19 -2 -12 -5z"/>
<path d="M4195 159 c-4 -6 -4 -13 -1 -16 3 -4 6 -1 6 6 0 8 8 11 20 8 11 -3
18 -1 14 4 -7 12 -31 11 -39 -2z"/>
<path d="M4275 160 c-3 -6 1 -7 9 -4 18 7 21 14 7 14 -6 0 -13 -4 -16 -10z"/>
<path d="M4314 156 c-11 -28 1 -51 26 -53 22 -1 22 -1 3 4 -31 6 -29 23 2 23
14 0 25 4 25 9 0 4 -11 6 -25 3 -14 -2 -25 0 -25 6 0 6 10 13 23 15 l22 4 -23
2 c-12 0 -25 -5 -28 -13z"/>
<path d="M4553 164 c27 -8 20 -27 -8 -22 -15 3 -25 1 -25 -7 0 -7 11 -10 31
-7 34 5 38 35 4 39 -16 1 -16 1 -2 -3z"/>
<path d="M4605 160 c-8 -14 3 -30 21 -30 17 0 19 -17 2 -23 -9 -2 -8 -4 1 -3
23 2 25 27 2 33 -26 7 -27 20 -3 26 15 4 15 5 0 6 -9 0 -20 -3 -23 -9z"/>
<path d="M4743 125 c0 -27 2 -38 4 -22 2 15 2 37 0 50 -2 12 -4 0 -4 -28z"/>
<path d="M4786 161 c-3 -5 2 -7 13 -4 16 4 20 -1 24 -29 l5 -33 -2 35 c-1 34
-26 54 -40 31z"/>
<path d="M4854 156 c-11 -28 1 -51 26 -53 22 -1 22 -1 3 4 -13 2 -23 8 -23 13
0 5 10 11 23 13 l22 4 -22 2 c-13 0 -23 6 -23 12 0 6 9 9 20 6 11 -3 18 -1 14
4 -8 14 -34 11 -40 -5z"/>
<path d="M4924 156 c-9 -23 0 -51 16 -52 9 0 10 1 3 3 -20 7 -16 51 5 56 16 4
16 5 -1 6 -10 0 -20 -5 -23 -13z"/>
<path d="M5045 160 c-8 -14 3 -30 21 -30 17 0 19 -17 2 -23 -9 -2 -8 -4 1 -3
23 2 25 27 2 33 -26 7 -27 20 -3 26 15 4 15 5 0 6 -9 0 -20 -3 -23 -9z"/>
<path d="M5133 164 c27 -8 20 -27 -8 -22 -15 3 -25 1 -25 -7 0 -7 11 -10 31
-7 34 5 38 35 4 39 -16 1 -16 1 -2 -3z"/>
<path d="M5185 159 c-4 -6 -4 -13 -1 -16 3 -4 6 -1 6 6 0 8 8 11 20 8 11 -3
18 -1 14 4 -7 12 -31 11 -39 -2z"/>
<path d="M5258 163 c7 -3 16 -2 19 1 4 3 -2 6 -13 5 -11 0 -14 -3 -6 -6z"/>
<path d="M5337 164 c-4 -4 -7 -12 -7 -18 0 -6 4 -5 9 3 11 17 41 7 41 -14 0
-21 -30 -31 -41 -14 -6 10 -9 11 -9 1 0 -21 30 -26 48 -8 13 13 14 20 6 34
-12 19 -36 27 -47 16z"/>
<path d="M5416 161 c-3 -5 2 -7 13 -4 16 4 20 -1 24 -29 l5 -33 -2 35 c-1 34
-26 54 -40 31z"/>
<path d="M5485 160 c-8 -14 3 -30 21 -30 17 0 19 -17 2 -23 -9 -2 -8 -4 1 -3
23 2 25 27 2 33 -26 7 -27 20 -3 26 15 4 15 5 0 6 -9 0 -20 -3 -23 -9z"/>
<path d="M5588 163 c7 -3 16 -2 19 1 4 3 -2 6 -13 5 -11 0 -14 -3 -6 -6z"/>
<path d="M5637 163 c-3 -5 5 -8 18 -8 13 0 21 3 18 8 -2 4 -10 7 -18 7 -8 0
-16 -3 -18 -7z"/>
<path d="M5703 135 c0 -22 2 -30 4 -17 2 12 2 30 0 40 -3 9 -5 -1 -4 -23z"/>
<path d="M5954 156 c-11 -28 1 -51 26 -53 22 -1 22 -1 3 4 -16 3 -23 12 -23
28 0 17 7 25 23 28 l22 4 -23 2 c-12 0 -25 -5 -28 -13z"/>
<path d="M6073 135 c0 -22 2 -30 4 -17 2 12 2 30 0 40 -3 9 -5 -1 -4 -23z"/>
<path d="M6108 163 c7 -3 16 -2 19 1 4 3 -2 6 -13 5 -11 0 -14 -3 -6 -6z"/>
<path d="M6304 156 c-11 -28 1 -51 26 -53 22 -1 22 -1 3 4 -13 2 -23 8 -23 13
0 5 10 11 23 13 l22 4 -22 2 c-13 0 -23 6 -23 12 0 6 9 9 20 6 11 -3 18 -1 14
4 -8 14 -34 11 -40 -5z"/>
<path d="M6535 160 c-3 -6 1 -7 9 -4 18 7 21 14 7 14 -6 0 -13 -4 -16 -10z"/>
<path d="M6574 156 c-11 -28 1 -51 26 -53 22 -1 22 -1 3 4 -16 3 -23 12 -23
28 0 17 7 25 23 28 l22 4 -23 2 c-12 0 -25 -5 -28 -13z"/>
<path d="M6653 125 c0 -27 2 -38 4 -22 2 15 2 37 0 50 -2 12 -4 0 -4 -28z"/>
<path d="M6684 156 c-11 -28 1 -51 26 -53 22 -1 22 -1 3 4 -13 2 -23 8 -23 13
0 5 10 11 23 13 l22 4 -22 2 c-13 0 -23 6 -23 12 0 6 9 9 20 6 11 -3 18 -1 14
4 -8 14 -34 11 -40 -5z"/>
<path d="M6754 156 c-11 -28 1 -51 26 -53 22 -1 22 -1 3 4 -16 3 -23 12 -23
28 0 17 7 25 23 28 l22 4 -23 2 c-12 0 -25 -5 -28 -13z"/>
<path d="M6875 160 c-8 -14 3 -30 21 -30 17 0 19 -17 2 -23 -9 -2 -8 -4 1 -3
23 2 25 27 2 33 -26 7 -27 20 -3 26 15 4 15 5 0 6 -9 0 -20 -3 -23 -9z"/>
<path d="M5830 146 c0 -8 4 -17 9 -20 5 -4 7 3 4 14 -6 23 -13 26 -13 6z"/>
<path d="M3753 136 c3 -26 33 -44 48 -29 9 9 7 11 -9 6 -16 -4 -24 1 -32 18
-7 17 -9 19 -7 5z"/>
<path d="M4441 134 c0 -11 3 -14 6 -6 3 7 2 16 -1 19 -3 4 -6 -2 -5 -13z"/>
<path d="M4691 139 c-1 -19 26 -45 36 -35 3 3 1 6 -6 6 -6 0 -16 10 -21 23 -6
15 -9 17 -9 6z"/>
<path d="M6001 134 c0 -11 3 -14 6 -6 3 7 2 16 -1 19 -3 4 -6 -2 -5 -13z"/>
<path d="M6210 144 c0 -6 7 -19 15 -30 8 -10 14 -14 14 -9 0 6 -6 19 -14 29
-8 11 -15 15 -15 10z"/>
<path d="M6621 134 c0 -11 3 -14 6 -6 3 7 2 16 -1 19 -3 4 -6 -2 -5 -13z"/>
<path d="M4100 136 c0 -2 7 -7 16 -10 8 -3 12 -2 9 4 -6 10 -25 14 -25 6z"/>
<path d="M5790 129 c0 -5 5 -7 10 -4 6 3 10 8 10 11 0 2 -4 4 -10 4 -5 0 -10
-5 -10 -11z"/>
<path d="M4191 114 c0 -11 3 -14 6 -6 3 7 2 16 -1 19 -3 4 -6 -2 -5 -13z"/>
<path d="M5180 122 c0 -18 29 -27 43 -13 9 9 8 11 -7 5 -11 -4 -21 -2 -27 7
-6 10 -9 11 -9 1z"/>
<path d="M3867 109 c7 -7 15 -10 18 -7 3 3 -2 9 -12 12 -14 6 -15 5 -6 -5z"/>
<path d="M4088 108 c5 -5 16 -8 23 -6 8 3 3 7 -10 11 -17 4 -21 3 -13 -5z"/>
<path d="M4220 110 c-9 -6 -10 -10 -3 -10 6 0 15 5 18 10 8 12 4 12 -15 0z"/>
<path d="M4555 110 c-16 -7 -17 -9 -3 -9 9 -1 20 4 23 9 7 11 7 11 -20 0z"/>
<path d="M5135 110 c-16 -7 -17 -9 -3 -9 9 -1 20 4 23 9 7 11 7 11 -20 0z"/>
<path d="M5260 110 c0 -5 5 -10 11 -10 5 0 7 5 4 10 -3 6 -8 10 -11 10 -2 0
-4 -4 -4 -10z"/>
<path d="M5637 108 c2 -5 10 -8 18 -8 8 0 16 3 18 8 3 4 -5 7 -18 7 -13 0 -21
-3 -18 -7z"/>
<path d="M6037 109 c7 -7 15 -10 18 -7 3 3 -2 9 -12 12 -14 6 -15 5 -6 -5z"/>
<path d="M6110 110 c0 -5 5 -10 11 -10 5 0 7 5 4 10 -3 6 -8 10 -11 10 -2 0
-4 -4 -4 -10z"/>
<path d="M4707 79 c7 -7 15 -10 18 -7 3 3 -2 9 -12 12 -14 6 -15 5 -6 -5z"/>
</g>
</svg>
